<?xml version="1.0" encoding="UTF-8"?>
<svg xmlns="http://www.w3.org/2000/svg" xmlns:xlink="http://www.w3.org/1999/xlink" width="450" height="450" viewBox="0 0 450 450">
<path fill-rule="nonzero" fill="rgb(21.960784%, 59.607846%, 14.901961%)" fill-opacity="1" stroke-width="6" stroke-linecap="butt" stroke-linejoin="miter" stroke="rgb(100%, 100%, 100%)" stroke-opacity="1" stroke-miterlimit="2" d="M 305.355469 183.765625 L 306.117188 182.339844 L 306.855469 180.902344 L 307.566406 179.453125 L 308.253906 177.988281 L 308.914062 176.511719 L 309.546875 175.027344 L 310.152344 173.527344 L 310.734375 172.019531 L 311.289062 170.503906 L 311.816406 168.976562 L 312.316406 167.4375 L 312.789062 165.894531 L 313.234375 164.339844 L 313.652344 162.777344 L 314.042969 161.210938 L 314.40625 159.636719 L 314.742188 158.054688 L 315.046875 156.46875 L 315.328125 154.875 L 315.578125 153.28125 L 315.800781 151.679688 L 315.996094 150.074219 L 316.160156 148.46875 L 316.300781 146.855469 L 316.40625 145.246094 L 316.488281 143.628906 L 316.539062 142.015625 L 316.566406 140.398438 L 316.558594 138.785156 L 316.527344 137.167969 L 316.464844 135.554688 L 316.375 133.9375 L 316.253906 132.328125 L 316.109375 130.71875 L 315.933594 129.113281 L 315.726562 127.507812 L 315.496094 125.910156 L 315.234375 124.316406 L 314.945312 122.722656 L 314.628906 121.140625 L 314.285156 119.5625 L 313.914062 117.988281 L 313.515625 116.421875 L 313.085938 114.863281 L 312.632812 113.3125 L 312.148438 111.769531 L 311.640625 110.238281 L 311.101562 108.710938 L 310.539062 107.199219 L 309.949219 105.691406 L 309.332031 104.199219 L 308.691406 102.714844 L 308.023438 101.246094 L 307.328125 99.785156 L 306.609375 98.339844 L 305.863281 96.90625 L 305.089844 95.484375 L 304.296875 94.078125 L 303.476562 92.6875 L 302.628906 91.308594 L 301.761719 89.945312 L 300.867188 88.597656 L 299.953125 87.269531 L 299.011719 85.953125 L 298.046875 84.65625 L 297.0625 83.375 L 296.054688 82.113281 L 295.023438 80.867188 L 293.972656 79.640625 L 292.898438 78.433594 L 291.804688 77.242188 L 290.6875 76.074219 L 289.550781 74.925781 L 288.394531 73.796875 L 287.21875 72.6875 L 286.023438 71.601562 L 284.808594 70.535156 L 283.578125 69.488281 L 282.324219 68.464844 L 281.058594 67.464844 L 279.769531 66.488281 L 278.46875 65.53125 L 277.148438 64.601562 L 275.808594 63.691406 L 274.457031 62.804688 L 273.089844 61.945312 L 271.707031 61.109375 L 270.308594 60.296875 L 268.898438 59.511719 L 243.65625 105.714844 L 244.257812 106.050781 L 244.851562 106.394531 L 245.4375 106.75 L 246.019531 107.117188 L 246.59375 107.492188 L 247.164062 107.878906 L 247.722656 108.273438 L 248.277344 108.679688 L 248.824219 109.097656 L 249.363281 109.523438 L 249.894531 109.957031 L 250.417969 110.398438 L 250.933594 110.855469 L 251.441406 111.316406 L 251.941406 111.785156 L 252.433594 112.265625 L 252.917969 112.753906 L 253.390625 113.253906 L 253.855469 113.757812 L 254.3125 114.269531 L 254.761719 114.792969 L 255.199219 115.320312 L 255.625 115.859375 L 256.046875 116.402344 L 256.453125 116.953125 L 256.855469 117.511719 L 257.242188 118.078125 L 257.625 118.652344 L 257.992188 119.230469 L 258.351562 119.816406 L 258.699219 120.40625 L 259.039062 121.003906 L 259.367188 121.609375 L 259.683594 122.21875 L 259.988281 122.832031 L 260.285156 123.453125 L 260.570312 124.078125 L 260.839844 124.707031 L 261.105469 125.34375 L 261.355469 125.984375 L 261.59375 126.625 L 261.820312 127.273438 L 262.039062 127.925781 L 262.242188 128.582031 L 262.4375 129.242188 L 262.617188 129.902344 L 262.789062 130.570312 L 262.945312 131.238281 L 263.09375 131.90625 L 263.226562 132.582031 L 263.351562 133.257812 L 263.460938 133.933594 L 263.558594 134.613281 L 263.644531 135.296875 L 263.71875 135.980469 L 263.785156 136.664062 L 263.832031 137.347656 L 263.871094 138.035156 L 263.898438 138.71875 L 263.914062 139.40625 L 263.914062 140.09375 L 263.90625 140.78125 L 263.882812 141.464844 L 263.847656 142.152344 L 263.800781 142.835938 L 263.742188 143.523438 L 263.671875 144.207031 L 263.589844 144.886719 L 263.496094 145.566406 L 263.390625 146.246094 L 263.269531 146.921875 L 263.140625 147.597656 L 262.996094 148.269531 L 262.84375 148.9375 L 262.675781 149.605469 L 262.5 150.269531 L 262.308594 150.929688 L 262.109375 151.585938 L 261.898438 152.238281 L 261.671875 152.886719 L 261.4375 153.53125 L 261.191406 154.171875 L 260.933594 154.808594 L 260.664062 155.441406 L 260.382812 156.070312 L 260.089844 156.691406 L 259.789062 157.308594 L 259.476562 157.917969 L 259.152344 158.523438 Z M 305.355469 183.765625 "/>
<path fill-rule="nonzero" fill="rgb(58.823532%, 34.509805%, 69.803923%)" fill-opacity="1" stroke-width="6" stroke-linecap="butt" stroke-linejoin="miter" stroke="rgb(100%, 100%, 100%)" stroke-opacity="1" stroke-miterlimit="2" d="M 268.898438 59.511719 L 267.488281 58.757812 L 266.066406 58.027344 L 264.632812 57.324219 L 263.1875 56.644531 L 261.726562 55.988281 L 260.257812 55.363281 L 258.777344 54.757812 L 257.289062 54.183594 L 255.789062 53.632812 L 254.277344 53.109375 L 252.757812 52.609375 L 251.234375 52.140625 L 249.699219 51.695312 L 248.15625 51.277344 L 246.605469 50.886719 L 245.050781 50.523438 L 243.488281 50.1875 L 241.917969 49.878906 L 240.34375 49.59375 L 238.769531 49.339844 L 237.1875 49.113281 L 235.601562 48.917969 L 234.011719 48.746094 L 232.417969 48.601562 L 230.824219 48.484375 L 229.230469 48.398438 L 227.632812 48.339844 L 226.035156 48.304688 L 224.4375 48.300781 L 222.839844 48.324219 L 221.242188 48.378906 L 219.644531 48.457031 L 218.050781 48.566406 L 216.457031 48.699219 L 214.867188 48.863281 L 213.28125 49.054688 L 211.699219 49.273438 L 210.121094 49.519531 L 208.546875 49.792969 L 206.976562 50.09375 L 205.410156 50.421875 L 203.855469 50.777344 L 202.300781 51.160156 L 200.757812 51.566406 L 199.21875 52.003906 L 197.691406 52.46875 L 196.167969 52.957031 L 194.65625 53.472656 L 193.152344 54.015625 L 191.660156 54.585938 L 190.175781 55.179688 L 188.703125 55.800781 L 187.242188 56.449219 L 185.792969 57.117188 L 184.355469 57.816406 L 182.929688 58.539062 L 181.515625 59.285156 L 180.117188 60.054688 L 178.730469 60.851562 L 177.359375 61.671875 L 176 62.515625 L 174.65625 63.378906 L 173.332031 64.269531 L 172.019531 65.183594 L 170.722656 66.121094 L 169.445312 67.078125 L 168.183594 68.058594 L 166.9375 69.0625 L 165.710938 70.085938 L 164.503906 71.132812 L 163.3125 72.199219 L 162.140625 73.285156 L 160.988281 74.390625 L 159.855469 75.519531 L 158.742188 76.664062 L 157.648438 77.832031 L 156.578125 79.015625 L 155.527344 80.21875 L 154.496094 81.441406 L 153.484375 82.679688 L 152.5 83.9375 L 151.535156 85.210938 L 150.589844 86.5 L 149.671875 87.808594 L 148.773438 89.132812 L 147.902344 90.46875 L 147.050781 91.824219 L 146.222656 93.191406 L 145.421875 94.570312 L 144.640625 95.96875 L 143.886719 97.375 L 143.160156 98.800781 L 142.453125 100.234375 L 141.777344 101.679688 L 141.121094 103.136719 L 140.492188 104.609375 L 139.890625 106.089844 L 139.316406 107.578125 L 138.765625 109.078125 L 138.238281 110.589844 L 137.742188 112.105469 L 137.269531 113.632812 L 136.828125 115.167969 L 136.410156 116.710938 L 136.019531 118.261719 L 135.65625 119.816406 L 135.320312 121.378906 L 135.011719 122.949219 L 134.726562 124.519531 L 134.472656 126.097656 L 134.246094 127.679688 L 134.046875 129.265625 L 133.878906 130.855469 L 133.734375 132.445312 L 133.617188 134.042969 L 133.53125 135.636719 L 133.472656 137.234375 L 133.4375 138.832031 L 133.433594 140.429688 L 133.457031 142.027344 L 186.09375 140.785156 L 186.085938 140.105469 L 186.085938 139.425781 L 186.101562 138.746094 L 186.125 138.070312 L 186.164062 137.390625 L 186.210938 136.714844 L 186.273438 136.039062 L 186.34375 135.363281 L 186.429688 134.6875 L 186.527344 134.015625 L 186.632812 133.34375 L 186.753906 132.675781 L 186.886719 132.011719 L 187.027344 131.347656 L 187.183594 130.683594 L 187.347656 130.027344 L 187.527344 129.371094 L 187.714844 128.71875 L 187.914062 128.070312 L 188.125 127.421875 L 188.351562 126.78125 L 188.582031 126.144531 L 188.828125 125.511719 L 189.085938 124.882812 L 189.351562 124.257812 L 189.628906 123.636719 L 189.917969 123.023438 L 190.21875 122.414062 L 190.527344 121.808594 L 190.847656 121.210938 L 191.179688 120.617188 L 191.519531 120.03125 L 191.871094 119.449219 L 192.234375 118.871094 L 192.605469 118.304688 L 192.984375 117.742188 L 193.375 117.1875 L 193.777344 116.636719 L 194.1875 116.097656 L 194.605469 115.5625 L 195.035156 115.035156 L 195.472656 114.515625 L 195.921875 114.003906 L 196.375 113.5 L 196.839844 113.007812 L 197.3125 112.519531 L 197.796875 112.039062 L 198.285156 111.570312 L 198.78125 111.109375 L 199.289062 110.65625 L 199.800781 110.210938 L 200.324219 109.773438 L 200.851562 109.347656 L 201.390625 108.933594 L 201.933594 108.523438 L 202.484375 108.125 L 203.039062 107.738281 L 203.605469 107.359375 L 204.175781 106.992188 L 204.75 106.632812 L 205.335938 106.285156 L 205.925781 105.945312 L 206.519531 105.621094 L 207.121094 105.300781 L 207.726562 104.996094 L 208.335938 104.699219 L 208.953125 104.414062 L 209.574219 104.140625 L 210.199219 103.875 L 210.832031 103.621094 L 211.464844 103.378906 L 212.105469 103.148438 L 212.746094 102.929688 L 213.394531 102.722656 L 214.042969 102.527344 L 214.695312 102.339844 L 215.351562 102.164062 L 216.011719 102.003906 L 216.675781 101.851562 L 217.339844 101.710938 L 218.007812 101.585938 L 218.675781 101.46875 L 219.347656 101.363281 L 220.019531 101.269531 L 220.695312 101.191406 L 221.371094 101.121094 L 222.046875 101.0625 L 222.722656 101.019531 L 223.402344 100.984375 L 224.082031 100.960938 L 224.761719 100.953125 L 225.441406 100.953125 L 226.117188 100.96875 L 226.796875 100.992188 L 227.476562 101.03125 L 228.152344 101.078125 L 228.828125 101.140625 L 229.503906 101.214844 L 230.179688 101.296875 L 230.851562 101.394531 L 231.523438 101.5 L 232.191406 101.621094 L 232.855469 101.753906 L 233.519531 101.894531 L 234.183594 102.050781 L 234.839844 102.214844 L 235.496094 102.394531 L 236.148438 102.582031 L 236.796875 102.78125 L 237.441406 102.996094 L 238.085938 103.21875 L 238.722656 103.449219 L 239.355469 103.695312 L 239.984375 103.953125 L 240.609375 104.21875 L 241.230469 104.496094 L 241.84375 104.785156 L 242.453125 105.085938 L 243.058594 105.394531 L 243.65625 105.714844 Z M 268.898438 59.511719 "/>
<path fill-rule="nonzero" fill="rgb(79.215688%, 23.529412%, 20%)" fill-opacity="1" stroke-width="6" stroke-linecap="butt" stroke-linejoin="miter" stroke="rgb(100%, 100%, 100%)" stroke-opacity="1" stroke-miterlimit="2" d="M 133.457031 142.027344 L 133.511719 143.636719 L 133.589844 145.242188 L 133.699219 146.847656 L 133.835938 148.449219 L 134 150.050781 L 134.195312 151.648438 L 134.414062 153.242188 L 134.664062 154.832031 L 134.941406 156.417969 L 135.246094 157.996094 L 135.578125 159.570312 L 135.9375 161.136719 L 136.324219 162.699219 L 136.742188 164.253906 L 137.183594 165.800781 L 137.652344 167.339844 L 138.148438 168.871094 L 138.671875 170.390625 L 139.21875 171.902344 L 139.796875 173.40625 L 140.398438 174.898438 L 141.027344 176.378906 L 141.683594 177.847656 L 142.363281 179.304688 L 143.066406 180.753906 L 143.796875 182.183594 L 144.554688 183.605469 L 145.335938 185.011719 L 146.140625 186.40625 L 146.972656 187.785156 L 147.824219 189.148438 L 148.703125 190.496094 L 149.605469 191.828125 L 150.527344 193.144531 L 151.476562 194.445312 L 152.445312 195.726562 L 153.4375 196.992188 L 154.453125 198.242188 L 155.488281 199.472656 L 156.546875 200.683594 L 157.628906 201.878906 L 158.726562 203.050781 L 159.847656 204.207031 L 160.988281 205.34375 L 162.148438 206.457031 L 163.328125 207.550781 L 164.527344 208.625 L 165.742188 209.675781 L 166.980469 210.707031 L 168.234375 211.714844 L 169.503906 212.699219 L 170.792969 213.664062 L 172.097656 214.605469 L 173.417969 215.523438 L 174.757812 216.417969 L 176.109375 217.289062 L 177.476562 218.136719 L 178.859375 218.957031 L 180.253906 219.757812 L 181.667969 220.53125 L 183.089844 221.28125 L 184.527344 222.003906 L 185.976562 222.703125 L 187.4375 223.375 L 188.910156 224.023438 L 190.394531 224.644531 L 191.890625 225.238281 L 193.394531 225.804688 L 194.910156 226.347656 L 196.433594 226.863281 L 197.964844 227.351562 L 199.507812 227.8125 L 201.058594 228.246094 L 202.613281 228.65625 L 204.175781 229.035156 L 205.746094 229.386719 L 207.324219 229.710938 L 208.902344 230.007812 L 210.488281 230.277344 L 212.082031 230.515625 L 213.675781 230.730469 L 215.273438 230.914062 L 216.875 231.074219 L 218.476562 231.199219 L 220.082031 231.300781 L 221.691406 231.375 L 223.300781 231.417969 L 224.90625 231.433594 L 226.515625 231.421875 L 228.125 231.378906 L 229.734375 231.3125 L 231.339844 231.214844 L 232.941406 231.089844 L 234.542969 230.933594 L 236.140625 230.753906 L 237.738281 230.542969 L 239.328125 230.304688 L 240.914062 230.039062 L 242.496094 229.746094 L 244.074219 229.425781 L 245.644531 229.074219 L 247.207031 228.699219 L 248.765625 228.296875 L 250.316406 227.863281 L 251.859375 227.40625 L 253.390625 226.921875 L 254.917969 226.410156 L 256.433594 225.871094 L 257.9375 225.304688 L 259.433594 224.710938 L 260.921875 224.09375 L 262.394531 223.449219 L 263.855469 222.78125 L 265.308594 222.085938 L 266.746094 221.363281 L 268.171875 220.617188 L 269.582031 219.847656 L 270.980469 219.050781 L 272.367188 218.230469 L 273.734375 217.386719 L 275.089844 216.519531 L 276.429688 215.625 L 277.753906 214.710938 L 279.058594 213.773438 L 280.347656 212.8125 L 281.621094 211.828125 L 282.878906 210.820312 L 284.117188 209.792969 L 285.335938 208.746094 L 286.535156 207.671875 L 287.71875 206.582031 L 288.878906 205.46875 L 290.023438 204.335938 L 291.144531 203.183594 L 292.246094 202.011719 L 293.328125 200.820312 L 294.390625 199.613281 L 295.429688 198.382812 L 296.445312 197.136719 L 297.441406 195.871094 L 298.414062 194.589844 L 299.363281 193.292969 L 300.292969 191.976562 L 301.195312 190.648438 L 302.074219 189.300781 L 302.933594 187.9375 L 303.765625 186.5625 L 304.574219 185.171875 L 305.355469 183.765625 L 259.152344 158.523438 L 258.816406 159.121094 L 258.476562 159.710938 L 258.121094 160.296875 L 257.757812 160.875 L 257.382812 161.449219 L 257 162.015625 L 256.605469 162.574219 L 256.199219 163.125 L 255.789062 163.667969 L 255.363281 164.207031 L 254.933594 164.738281 L 254.492188 165.257812 L 254.039062 165.773438 L 253.582031 166.277344 L 253.113281 166.777344 L 252.632812 167.265625 L 252.148438 167.75 L 251.65625 168.222656 L 251.152344 168.683594 L 250.640625 169.140625 L 250.125 169.585938 L 249.597656 170.023438 L 249.0625 170.449219 L 248.523438 170.867188 L 247.976562 171.277344 L 247.417969 171.675781 L 246.855469 172.066406 L 246.289062 172.445312 L 245.710938 172.8125 L 245.128906 173.171875 L 244.542969 173.519531 L 243.949219 173.859375 L 243.347656 174.1875 L 242.742188 174.503906 L 242.128906 174.808594 L 241.515625 175.105469 L 240.890625 175.390625 L 240.265625 175.664062 L 239.632812 175.925781 L 239 176.175781 L 238.359375 176.417969 L 237.714844 176.648438 L 237.066406 176.863281 L 236.414062 177.070312 L 235.757812 177.265625 L 235.101562 177.449219 L 234.4375 177.621094 L 233.773438 177.78125 L 233.105469 177.929688 L 232.4375 178.066406 L 231.765625 178.191406 L 231.089844 178.304688 L 230.414062 178.40625 L 229.734375 178.492188 L 229.054688 178.570312 L 228.375 178.636719 L 227.695312 178.6875 L 227.011719 178.730469 L 226.328125 178.761719 L 225.644531 178.777344 L 224.960938 178.78125 L 224.277344 178.777344 L 223.59375 178.757812 L 222.910156 178.726562 L 222.226562 178.683594 L 221.546875 178.628906 L 220.867188 178.5625 L 220.1875 178.484375 L 219.507812 178.394531 L 218.832031 178.292969 L 218.160156 178.175781 L 217.488281 178.050781 L 216.816406 177.914062 L 216.148438 177.761719 L 215.484375 177.601562 L 214.824219 177.429688 L 214.164062 177.246094 L 213.511719 177.046875 L 212.859375 176.839844 L 212.210938 176.621094 L 211.566406 176.390625 L 210.929688 176.148438 L 210.292969 175.898438 L 209.660156 175.632812 L 209.035156 175.359375 L 208.414062 175.070312 L 207.796875 174.773438 L 207.1875 174.46875 L 206.582031 174.148438 L 205.984375 173.820312 L 205.390625 173.480469 L 204.800781 173.132812 L 204.222656 172.769531 L 203.644531 172.402344 L 203.078125 172.019531 L 202.515625 171.628906 L 201.960938 171.230469 L 201.414062 170.820312 L 200.875 170.402344 L 200.339844 169.972656 L 199.816406 169.535156 L 199.296875 169.089844 L 198.789062 168.632812 L 198.289062 168.167969 L 197.792969 167.695312 L 197.308594 167.210938 L 196.832031 166.722656 L 196.367188 166.222656 L 195.90625 165.714844 L 195.457031 165.199219 L 195.019531 164.675781 L 194.585938 164.144531 L 194.164062 163.609375 L 193.753906 163.0625 L 193.347656 162.511719 L 192.957031 161.949219 L 192.574219 161.382812 L 192.199219 160.8125 L 191.835938 160.230469 L 191.484375 159.644531 L 191.140625 159.054688 L 190.8125 158.457031 L 190.488281 157.851562 L 190.179688 157.242188 L 189.878906 156.628906 L 189.589844 156.007812 L 189.3125 155.382812 L 189.042969 154.753906 L 188.789062 154.121094 L 188.542969 153.484375 L 188.308594 152.839844 L 188.085938 152.195312 L 187.875 151.542969 L 187.675781 150.890625 L 187.488281 150.230469 L 187.3125 149.570312 L 187.148438 148.90625 L 186.996094 148.242188 L 186.855469 147.570312 L 186.726562 146.902344 L 186.605469 146.226562 L 186.5 145.550781 L 186.40625 144.875 L 186.324219 144.195312 L 186.253906 143.515625 L 186.195312 142.832031 L 186.152344 142.152344 L 186.117188 141.46875 L 186.09375 140.785156 Z M 133.457031 142.027344 "/>
<path fill-rule="nonzero" fill="rgb(21.960784%, 59.607846%, 14.901961%)" fill-opacity="1" stroke-width="6" stroke-linecap="butt" stroke-linejoin="miter" stroke="rgb(100%, 100%, 100%)" stroke-opacity="1" stroke-miterlimit="2" d="M 263.582031 379.429688 L 264.808594 380.46875 L 266.054688 381.488281 L 267.316406 382.488281 L 268.597656 383.460938 L 269.894531 384.414062 L 271.207031 385.34375 L 272.539062 386.25 L 273.882812 387.132812 L 275.246094 387.992188 L 276.621094 388.828125 L 278.011719 389.636719 L 279.414062 390.421875 L 280.832031 391.183594 L 282.265625 391.921875 L 283.707031 392.632812 L 285.164062 393.316406 L 286.632812 393.976562 L 288.109375 394.609375 L 289.601562 395.21875 L 291.101562 395.800781 L 292.613281 396.355469 L 294.132812 396.882812 L 295.660156 397.382812 L 297.199219 397.859375 L 298.746094 398.304688 L 300.296875 398.726562 L 301.859375 399.121094 L 303.425781 399.484375 L 305 399.824219 L 306.578125 400.132812 L 308.164062 400.414062 L 309.753906 400.667969 L 311.34375 400.894531 L 312.941406 401.09375 L 314.542969 401.265625 L 316.144531 401.40625 L 317.75 401.519531 L 319.359375 401.605469 L 320.964844 401.664062 L 322.574219 401.695312 L 324.183594 401.695312 L 325.792969 401.667969 L 327.402344 401.613281 L 329.007812 401.527344 L 330.613281 401.414062 L 332.21875 401.277344 L 333.816406 401.105469 L 335.414062 400.910156 L 337.007812 400.6875 L 338.597656 400.433594 L 340.183594 400.152344 L 341.761719 399.84375 L 343.335938 399.507812 L 344.902344 399.144531 L 346.464844 398.753906 L 348.019531 398.335938 L 349.566406 397.890625 L 351.101562 397.417969 L 352.632812 396.917969 L 354.152344 396.390625 L 355.664062 395.835938 L 357.167969 395.257812 L 358.65625 394.652344 L 360.136719 394.019531 L 361.605469 393.363281 L 363.0625 392.679688 L 364.507812 391.96875 L 365.9375 391.234375 L 367.359375 390.476562 L 368.761719 389.691406 L 370.152344 388.882812 L 371.53125 388.046875 L 372.894531 387.191406 L 374.238281 386.308594 L 375.570312 385.40625 L 376.886719 384.476562 L 378.183594 383.527344 L 379.464844 382.554688 L 380.730469 381.558594 L 381.976562 380.539062 L 383.203125 379.5 L 384.414062 378.4375 L 385.605469 377.355469 L 386.777344 376.253906 L 387.929688 375.128906 L 389.0625 373.984375 L 390.171875 372.824219 L 391.265625 371.640625 L 392.335938 370.4375 L 393.382812 369.21875 L 394.414062 367.980469 L 395.417969 366.722656 L 396.402344 365.449219 L 397.363281 364.160156 L 398.300781 362.851562 L 399.214844 361.527344 L 400.105469 360.1875 L 400.976562 358.832031 L 401.820312 357.460938 L 402.636719 356.078125 L 403.433594 354.679688 L 404.203125 353.265625 L 404.949219 351.839844 L 405.671875 350.398438 L 406.363281 348.949219 L 407.035156 347.484375 L 407.679688 346.011719 L 408.296875 344.523438 L 408.886719 343.027344 L 409.453125 341.519531 L 409.992188 340.003906 L 410.5 338.476562 L 410.988281 336.945312 L 411.445312 335.402344 L 411.875 333.851562 L 412.277344 332.292969 L 412.652344 330.726562 L 413 329.15625 L 413.324219 327.578125 L 413.613281 325.996094 L 413.878906 324.410156 L 414.117188 322.816406 L 414.324219 321.222656 L 414.507812 319.621094 L 414.660156 318.019531 L 414.785156 316.417969 L 414.878906 314.808594 L 414.949219 313.203125 L 414.988281 311.59375 L 415 309.984375 L 362.347656 310.070312 L 362.34375 310.753906 L 362.328125 311.4375 L 362.296875 312.121094 L 362.257812 312.800781 L 362.203125 313.484375 L 362.140625 314.164062 L 362.0625 314.84375 L 361.972656 315.523438 L 361.875 316.199219 L 361.761719 316.875 L 361.636719 317.546875 L 361.5 318.21875 L 361.351562 318.882812 L 361.191406 319.550781 L 361.019531 320.210938 L 360.839844 320.871094 L 360.644531 321.527344 L 360.4375 322.179688 L 360.21875 322.828125 L 359.992188 323.472656 L 359.75 324.113281 L 359.5 324.75 L 359.238281 325.378906 L 358.964844 326.007812 L 358.679688 326.628906 L 358.382812 327.246094 L 358.078125 327.855469 L 357.761719 328.464844 L 357.433594 329.0625 L 357.09375 329.660156 L 356.746094 330.246094 L 356.386719 330.828125 L 356.019531 331.40625 L 355.640625 331.972656 L 355.253906 332.539062 L 354.851562 333.09375 L 354.445312 333.640625 L 354.027344 334.183594 L 353.597656 334.71875 L 353.164062 335.242188 L 352.71875 335.761719 L 352.261719 336.273438 L 351.796875 336.773438 L 351.324219 337.269531 L 350.84375 337.753906 L 350.355469 338.234375 L 349.855469 338.703125 L 349.351562 339.160156 L 348.835938 339.613281 L 348.3125 340.054688 L 347.785156 340.488281 L 347.246094 340.910156 L 346.703125 341.324219 L 346.152344 341.726562 L 345.59375 342.121094 L 345.027344 342.507812 L 344.453125 342.882812 L 343.875 343.246094 L 343.289062 343.601562 L 342.699219 343.945312 L 342.101562 344.277344 L 341.5 344.601562 L 340.890625 344.914062 L 340.277344 345.214844 L 339.65625 345.503906 L 339.03125 345.785156 L 338.402344 346.050781 L 337.769531 346.308594 L 337.132812 346.554688 L 336.488281 346.792969 L 335.84375 347.015625 L 335.191406 347.226562 L 334.539062 347.429688 L 333.882812 347.617188 L 333.222656 347.796875 L 332.558594 347.960938 L 331.890625 348.117188 L 331.222656 348.257812 L 330.550781 348.390625 L 329.878906 348.507812 L 329.203125 348.617188 L 328.527344 348.710938 L 327.847656 348.796875 L 327.167969 348.867188 L 326.484375 348.925781 L 325.804688 348.976562 L 325.121094 349.011719 L 324.4375 349.035156 L 323.753906 349.046875 L 323.070312 349.046875 L 322.386719 349.03125 L 321.703125 349.007812 L 321.019531 348.972656 L 320.335938 348.921875 L 319.65625 348.863281 L 318.976562 348.789062 L 318.296875 348.707031 L 317.617188 348.609375 L 316.945312 348.503906 L 316.269531 348.382812 L 315.597656 348.25 L 314.929688 348.105469 L 314.265625 347.953125 L 313.601562 347.785156 L 312.941406 347.605469 L 312.285156 347.414062 L 311.628906 347.214844 L 310.980469 347 L 310.335938 346.777344 L 309.691406 346.539062 L 309.054688 346.292969 L 308.421875 346.035156 L 307.792969 345.765625 L 307.167969 345.484375 L 306.550781 345.195312 L 305.9375 344.890625 L 305.328125 344.578125 L 304.726562 344.253906 L 304.128906 343.921875 L 303.539062 343.578125 L 302.953125 343.222656 L 302.375 342.855469 L 301.804688 342.480469 L 301.238281 342.097656 L 300.679688 341.703125 L 300.128906 341.296875 L 299.585938 340.882812 L 299.046875 340.457031 L 298.519531 340.023438 L 297.996094 339.582031 Z M 263.582031 379.429688 "/>
<path fill-rule="nonzero" fill="rgb(58.823532%, 34.509805%, 69.803923%)" fill-opacity="1" stroke-width="6" stroke-linecap="butt" stroke-linejoin="miter" stroke="rgb(100%, 100%, 100%)" stroke-opacity="1" stroke-miterlimit="2" d="M 415 309.984375 L 414.984375 308.375 L 414.9375 306.765625 L 414.863281 305.160156 L 414.761719 303.550781 L 414.632812 301.949219 L 414.476562 300.347656 L 414.289062 298.75 L 414.074219 297.152344 L 413.832031 295.5625 L 413.5625 293.976562 L 413.265625 292.394531 L 412.941406 290.816406 L 412.585938 289.25 L 412.207031 287.683594 L 411.796875 286.128906 L 411.363281 284.578125 L 410.898438 283.039062 L 410.410156 281.503906 L 409.894531 279.980469 L 409.351562 278.464844 L 408.78125 276.960938 L 408.183594 275.464844 L 407.5625 273.980469 L 406.914062 272.507812 L 406.238281 271.046875 L 405.539062 269.597656 L 404.816406 268.160156 L 404.066406 266.738281 L 403.289062 265.328125 L 402.488281 263.929688 L 401.664062 262.546875 L 400.816406 261.179688 L 399.945312 259.828125 L 399.050781 258.492188 L 398.128906 257.171875 L 397.1875 255.867188 L 396.222656 254.578125 L 395.234375 253.308594 L 394.226562 252.054688 L 393.195312 250.820312 L 392.140625 249.601562 L 391.066406 248.40625 L 389.972656 247.226562 L 388.855469 246.066406 L 387.71875 244.925781 L 386.5625 243.804688 L 385.386719 242.707031 L 384.195312 241.628906 L 382.980469 240.570312 L 381.75 239.535156 L 380.5 238.523438 L 379.230469 237.53125 L 377.945312 236.558594 L 376.644531 235.613281 L 375.328125 234.691406 L 373.992188 233.789062 L 372.644531 232.914062 L 371.28125 232.058594 L 369.902344 231.230469 L 368.507812 230.425781 L 367.097656 229.648438 L 365.679688 228.890625 L 364.242188 228.160156 L 362.796875 227.457031 L 361.335938 226.777344 L 339.542969 274.707031 L 340.164062 274.996094 L 340.777344 275.292969 L 341.386719 275.605469 L 341.992188 275.925781 L 342.589844 276.257812 L 343.183594 276.597656 L 343.769531 276.949219 L 344.347656 277.3125 L 344.921875 277.6875 L 345.488281 278.070312 L 346.046875 278.460938 L 346.601562 278.863281 L 347.148438 279.277344 L 347.6875 279.695312 L 348.21875 280.128906 L 348.742188 280.566406 L 349.257812 281.015625 L 349.765625 281.476562 L 350.265625 281.941406 L 350.753906 282.417969 L 351.238281 282.902344 L 351.710938 283.394531 L 352.175781 283.898438 L 352.632812 284.40625 L 353.082031 284.921875 L 353.519531 285.449219 L 353.949219 285.980469 L 354.367188 286.519531 L 354.777344 287.070312 L 355.179688 287.621094 L 355.570312 288.183594 L 355.949219 288.753906 L 356.320312 289.328125 L 356.683594 289.910156 L 357.03125 290.496094 L 357.371094 291.089844 L 357.703125 291.6875 L 358.019531 292.292969 L 358.328125 292.90625 L 358.625 293.519531 L 358.914062 294.140625 L 359.1875 294.769531 L 359.453125 295.398438 L 359.707031 296.035156 L 359.949219 296.671875 L 360.179688 297.316406 L 360.398438 297.964844 L 360.605469 298.617188 L 360.804688 299.269531 L 360.988281 299.929688 L 361.160156 300.589844 L 361.324219 301.257812 L 361.472656 301.921875 L 361.613281 302.59375 L 361.738281 303.265625 L 361.855469 303.9375 L 361.957031 304.617188 L 362.046875 305.292969 L 362.125 305.972656 L 362.195312 306.652344 L 362.25 307.335938 L 362.292969 308.019531 L 362.324219 308.699219 L 362.34375 309.382812 L 362.347656 310.070312 Z M 415 309.984375 "/>
<path fill-rule="nonzero" fill="rgb(79.215688%, 23.529412%, 20%)" fill-opacity="1" stroke-width="6" stroke-linecap="butt" stroke-linejoin="miter" stroke="rgb(100%, 100%, 100%)" stroke-opacity="1" stroke-miterlimit="2" d="M 361.335938 226.777344 L 359.871094 226.128906 L 358.394531 225.5 L 356.90625 224.902344 L 355.40625 224.328125 L 353.898438 223.78125 L 352.382812 223.261719 L 350.855469 222.765625 L 349.320312 222.300781 L 347.777344 221.859375 L 346.226562 221.445312 L 344.671875 221.0625 L 343.105469 220.703125 L 341.535156 220.371094 L 339.960938 220.070312 L 338.378906 219.792969 L 336.796875 219.542969 L 335.207031 219.324219 L 333.613281 219.132812 L 332.015625 218.96875 L 330.417969 218.832031 L 328.816406 218.722656 L 327.214844 218.644531 L 325.613281 218.589844 L 324.007812 218.566406 L 322.402344 218.570312 L 320.800781 218.601562 L 319.195312 218.664062 L 317.59375 218.75 L 315.996094 218.867188 L 314.398438 219.011719 L 312.800781 219.183594 L 311.210938 219.382812 L 309.621094 219.613281 L 308.039062 219.867188 L 306.457031 220.152344 L 304.886719 220.464844 L 303.316406 220.800781 L 301.753906 221.167969 L 300.199219 221.5625 L 298.652344 221.980469 L 297.109375 222.429688 L 295.578125 222.90625 L 294.054688 223.40625 L 292.539062 223.933594 L 291.035156 224.488281 L 289.539062 225.070312 L 288.054688 225.675781 L 286.578125 226.308594 L 285.117188 226.96875 L 283.664062 227.652344 L 282.226562 228.359375 L 280.800781 229.097656 L 279.386719 229.855469 L 277.984375 230.640625 L 276.601562 231.449219 L 275.230469 232.28125 L 273.871094 233.136719 L 272.53125 234.015625 L 271.207031 234.921875 L 269.894531 235.847656 L 268.601562 236.796875 L 267.324219 237.769531 L 266.066406 238.761719 L 264.824219 239.777344 L 263.601562 240.816406 L 262.394531 241.875 L 261.210938 242.957031 L 260.042969 244.054688 L 258.894531 245.175781 L 257.765625 246.316406 L 256.660156 247.476562 L 255.570312 248.65625 L 254.503906 249.855469 L 253.457031 251.074219 L 252.433594 252.308594 L 251.433594 253.558594 L 250.453125 254.832031 L 249.496094 256.117188 L 248.558594 257.421875 L 247.648438 258.742188 L 246.757812 260.078125 L 245.894531 261.429688 L 245.050781 262.792969 L 244.234375 264.175781 L 243.441406 265.570312 L 242.671875 266.976562 L 241.929688 268.398438 L 241.210938 269.832031 L 240.519531 271.28125 L 239.851562 272.738281 L 239.207031 274.210938 L 238.589844 275.691406 L 238 277.183594 L 237.4375 278.683594 L 236.898438 280.195312 L 236.386719 281.714844 L 235.902344 283.246094 L 235.445312 284.785156 L 235.015625 286.328125 L 234.613281 287.882812 L 234.234375 289.441406 L 233.886719 291.007812 L 233.566406 292.578125 L 233.269531 294.15625 L 233.003906 295.738281 L 232.765625 297.324219 L 232.554688 298.914062 L 232.375 300.507812 L 232.21875 302.105469 L 232.09375 303.707031 L 231.996094 305.308594 L 231.921875 306.910156 L 231.882812 308.515625 L 231.867188 310.117188 L 231.882812 311.722656 L 231.921875 313.328125 L 231.992188 314.929688 L 232.089844 316.53125 L 232.21875 318.128906 L 232.371094 319.726562 L 232.554688 321.320312 L 232.761719 322.910156 L 233 324.496094 L 233.265625 326.082031 L 233.558594 327.65625 L 233.882812 329.230469 L 234.230469 330.796875 L 234.605469 332.355469 L 235.007812 333.90625 L 235.4375 335.453125 L 235.894531 336.992188 L 236.378906 338.519531 L 236.890625 340.042969 L 237.425781 341.554688 L 237.992188 343.054688 L 238.582031 344.546875 L 239.195312 346.027344 L 239.839844 347.5 L 240.507812 348.957031 L 241.199219 350.40625 L 241.917969 351.839844 L 242.660156 353.261719 L 243.429688 354.671875 L 244.222656 356.066406 L 245.039062 357.445312 L 245.878906 358.8125 L 246.746094 360.164062 L 247.632812 361.5 L 248.542969 362.820312 L 249.480469 364.125 L 250.4375 365.410156 L 251.417969 366.679688 L 252.417969 367.933594 L 253.441406 369.171875 L 254.488281 370.386719 L 255.554688 371.585938 L 256.640625 372.765625 L 257.75 373.925781 L 258.875 375.066406 L 260.023438 376.1875 L 261.191406 377.289062 L 262.375 378.371094 L 263.582031 379.429688 L 297.996094 339.582031 L 297.484375 339.132812 L 296.980469 338.671875 L 296.484375 338.207031 L 295.996094 337.730469 L 295.515625 337.246094 L 295.046875 336.75 L 294.585938 336.25 L 294.132812 335.738281 L 293.6875 335.222656 L 293.253906 334.699219 L 292.828125 334.164062 L 292.410156 333.625 L 292.003906 333.078125 L 291.605469 332.523438 L 291.21875 331.960938 L 290.839844 331.394531 L 290.472656 330.820312 L 290.117188 330.238281 L 289.769531 329.652344 L 289.433594 329.058594 L 289.105469 328.460938 L 288.789062 327.859375 L 288.484375 327.246094 L 288.191406 326.632812 L 287.90625 326.011719 L 287.632812 325.386719 L 287.371094 324.757812 L 287.121094 324.125 L 286.882812 323.484375 L 286.652344 322.84375 L 286.4375 322.195312 L 286.230469 321.546875 L 286.035156 320.894531 L 285.851562 320.238281 L 285.679688 319.578125 L 285.523438 318.914062 L 285.375 318.246094 L 285.238281 317.578125 L 285.113281 316.910156 L 285 316.238281 L 284.898438 315.5625 L 284.808594 314.886719 L 284.730469 314.210938 L 284.667969 313.53125 L 284.613281 312.851562 L 284.570312 312.171875 L 284.542969 311.488281 L 284.523438 310.808594 L 284.519531 310.125 L 284.523438 309.445312 L 284.542969 308.761719 L 284.570312 308.082031 L 284.613281 307.402344 L 284.667969 306.722656 L 284.734375 306.042969 L 284.8125 305.363281 L 284.898438 304.6875 L 285 304.015625 L 285.113281 303.34375 L 285.238281 302.671875 L 285.375 302.003906 L 285.523438 301.339844 L 285.683594 300.675781 L 285.855469 300.015625 L 286.039062 299.359375 L 286.234375 298.703125 L 286.4375 298.054688 L 286.65625 297.410156 L 286.886719 296.765625 L 287.125 296.128906 L 287.375 295.492188 L 287.636719 294.863281 L 287.910156 294.238281 L 288.195312 293.621094 L 288.488281 293.003906 L 288.792969 292.394531 L 289.109375 291.789062 L 289.4375 291.191406 L 289.773438 290.601562 L 290.121094 290.011719 L 290.480469 289.433594 L 290.847656 288.859375 L 291.226562 288.289062 L 291.613281 287.730469 L 292.007812 287.175781 L 292.417969 286.628906 L 292.832031 286.089844 L 293.257812 285.554688 L 293.695312 285.03125 L 294.136719 284.515625 L 294.59375 284.003906 L 295.054688 283.503906 L 295.523438 283.011719 L 296.003906 282.527344 L 296.492188 282.050781 L 296.988281 281.582031 L 297.492188 281.121094 L 298.003906 280.671875 L 298.523438 280.230469 L 299.050781 279.800781 L 299.585938 279.378906 L 300.128906 278.964844 L 300.679688 278.5625 L 301.238281 278.167969 L 301.800781 277.78125 L 302.371094 277.410156 L 302.945312 277.042969 L 303.53125 276.691406 L 304.117188 276.347656 L 304.714844 276.015625 L 305.3125 275.691406 L 305.921875 275.378906 L 306.53125 275.078125 L 307.148438 274.785156 L 307.769531 274.507812 L 308.398438 274.238281 L 309.027344 273.980469 L 309.664062 273.734375 L 310.304688 273.496094 L 310.949219 273.273438 L 311.59375 273.058594 L 312.246094 272.859375 L 312.902344 272.667969 L 313.558594 272.488281 L 314.21875 272.320312 L 314.882812 272.167969 L 315.550781 272.023438 L 316.21875 271.890625 L 316.890625 271.769531 L 317.5625 271.660156 L 318.238281 271.5625 L 318.914062 271.480469 L 319.59375 271.40625 L 320.273438 271.34375 L 320.953125 271.292969 L 321.632812 271.257812 L 322.3125 271.230469 L 322.996094 271.21875 L 323.679688 271.214844 L 324.359375 271.226562 L 325.042969 271.25 L 325.722656 271.28125 L 326.402344 271.328125 L 327.082031 271.386719 L 327.761719 271.457031 L 328.4375 271.539062 L 329.113281 271.632812 L 329.785156 271.738281 L 330.457031 271.855469 L 331.128906 271.984375 L 331.792969 272.125 L 332.460938 272.277344 L 333.121094 272.441406 L 333.78125 272.617188 L 334.433594 272.804688 L 335.085938 273 L 335.738281 273.210938 L 336.382812 273.433594 L 337.023438 273.664062 L 337.660156 273.910156 L 338.292969 274.164062 L 338.917969 274.429688 L 339.542969 274.707031 Z M 361.335938 226.777344 "/>
<path fill-rule="nonzero" fill="rgb(58.823532%, 34.509805%, 69.803923%)" fill-opacity="1" stroke-width="6" stroke-linecap="butt" stroke-linejoin="miter" stroke="rgb(100%, 100%, 100%)" stroke-opacity="1" stroke-miterlimit="2" d="M 218.132812 310.132812 L 218.117188 308.523438 L 218.074219 306.914062 L 218.003906 305.308594 L 217.90625 303.703125 L 217.78125 302.101562 L 217.625 300.5 L 217.441406 298.902344 L 217.230469 297.308594 L 216.992188 295.71875 L 216.722656 294.132812 L 216.429688 292.550781 L 216.105469 290.976562 L 215.753906 289.40625 L 215.378906 287.84375 L 214.972656 286.285156 L 214.539062 284.738281 L 214.082031 283.195312 L 213.59375 281.664062 L 213.082031 280.140625 L 212.542969 278.625 L 211.972656 277.121094 L 211.382812 275.625 L 210.761719 274.140625 L 210.117188 272.667969 L 209.445312 271.207031 L 208.75 269.757812 L 208.027344 268.320312 L 207.28125 266.894531 L 206.511719 265.484375 L 205.714844 264.085938 L 204.890625 262.703125 L 204.046875 261.335938 L 203.179688 259.984375 L 202.285156 258.644531 L 201.371094 257.324219 L 200.429688 256.015625 L 199.46875 254.730469 L 198.484375 253.457031 L 197.480469 252.203125 L 196.449219 250.964844 L 195.402344 249.746094 L 194.328125 248.546875 L 193.238281 247.367188 L 192.125 246.207031 L 190.992188 245.066406 L 189.839844 243.945312 L 188.667969 242.84375 L 187.476562 241.761719 L 186.265625 240.703125 L 185.039062 239.664062 L 183.789062 238.648438 L 182.527344 237.65625 L 181.246094 236.683594 L 179.945312 235.734375 L 178.632812 234.808594 L 177.300781 233.90625 L 175.953125 233.027344 L 174.59375 232.171875 L 173.214844 231.339844 L 171.824219 230.53125 L 170.421875 229.75 L 169.003906 228.992188 L 167.570312 228.257812 L 166.125 227.550781 L 164.671875 226.871094 L 163.203125 226.214844 L 161.722656 225.582031 L 160.230469 224.980469 L 158.730469 224.402344 L 157.222656 223.847656 L 155.699219 223.324219 L 154.171875 222.824219 L 152.632812 222.355469 L 151.089844 221.910156 L 149.535156 221.492188 L 147.976562 221.101562 L 146.410156 220.742188 L 144.835938 220.40625 L 143.257812 220.097656 L 141.671875 219.820312 L 140.085938 219.566406 L 138.492188 219.34375 L 136.894531 219.148438 L 135.296875 218.980469 L 133.695312 218.84375 L 132.089844 218.730469 L 130.484375 218.648438 L 128.878906 218.59375 L 127.269531 218.566406 L 125.660156 218.570312 L 124.054688 218.597656 L 122.445312 218.65625 L 120.839844 218.742188 L 119.234375 218.859375 L 117.632812 219 L 116.035156 219.171875 L 114.4375 219.371094 L 112.847656 219.597656 L 111.257812 219.851562 L 109.675781 220.136719 L 108.097656 220.445312 L 106.527344 220.785156 L 104.960938 221.148438 L 103.402344 221.542969 L 101.847656 221.964844 L 100.304688 222.410156 L 98.765625 222.886719 L 97.238281 223.386719 L 95.722656 223.917969 L 94.210938 224.472656 L 92.710938 225.050781 L 91.222656 225.660156 L 89.746094 226.292969 L 88.277344 226.953125 L 86.824219 227.640625 L 85.378906 228.347656 L 83.949219 229.085938 L 82.535156 229.847656 L 81.132812 230.632812 L 79.742188 231.441406 L 78.367188 232.277344 L 77.007812 233.136719 L 75.664062 234.015625 L 74.332031 234.921875 L 73.019531 235.851562 L 71.726562 236.804688 L 70.445312 237.777344 L 69.183594 238.773438 L 67.9375 239.792969 L 66.710938 240.835938 L 65.503906 241.894531 L 64.316406 242.980469 L 63.144531 244.082031 L 61.996094 245.207031 L 60.867188 246.351562 L 59.757812 247.515625 L 58.667969 248.695312 L 57.597656 249.898438 L 56.550781 251.121094 L 55.527344 252.359375 L 54.523438 253.613281 L 53.539062 254.890625 L 52.582031 256.179688 L 51.644531 257.488281 L 50.730469 258.8125 L 49.84375 260.152344 L 48.976562 261.507812 L 48.136719 262.875 L 47.316406 264.261719 L 46.523438 265.660156 L 45.753906 267.074219 L 45.011719 268.5 L 44.292969 269.9375 L 43.597656 271.386719 L 42.933594 272.851562 L 42.289062 274.324219 L 41.675781 275.8125 L 41.085938 277.308594 L 40.519531 278.8125 L 89.996094 296.820312 L 90.234375 296.179688 L 90.488281 295.546875 L 90.75 294.914062 L 91.019531 294.289062 L 91.304688 293.664062 L 91.601562 293.046875 L 91.90625 292.4375 L 92.222656 291.832031 L 92.546875 291.230469 L 92.886719 290.636719 L 93.234375 290.046875 L 93.589844 289.464844 L 93.957031 288.890625 L 94.335938 288.320312 L 94.722656 287.757812 L 95.121094 287.203125 L 95.53125 286.652344 L 95.945312 286.113281 L 96.375 285.578125 L 96.808594 285.050781 L 97.253906 284.53125 L 97.707031 284.023438 L 98.171875 283.519531 L 98.644531 283.023438 L 99.125 282.539062 L 99.613281 282.0625 L 100.109375 281.589844 L 100.613281 281.132812 L 101.128906 280.679688 L 101.648438 280.238281 L 102.179688 279.804688 L 102.714844 279.382812 L 103.257812 278.96875 L 103.808594 278.5625 L 104.367188 278.167969 L 104.933594 277.78125 L 105.503906 277.40625 L 106.082031 277.042969 L 106.664062 276.6875 L 107.257812 276.34375 L 107.851562 276.011719 L 108.453125 275.6875 L 109.0625 275.375 L 109.675781 275.070312 L 110.292969 274.78125 L 110.917969 274.5 L 111.546875 274.230469 L 112.179688 273.972656 L 112.816406 273.726562 L 113.457031 273.488281 L 114.101562 273.265625 L 114.75 273.050781 L 115.40625 272.851562 L 116.0625 272.660156 L 116.71875 272.480469 L 117.382812 272.3125 L 118.050781 272.160156 L 118.71875 272.015625 L 119.386719 271.882812 L 120.058594 271.761719 L 120.734375 271.65625 L 121.410156 271.558594 L 122.089844 271.472656 L 122.769531 271.402344 L 123.449219 271.339844 L 124.132812 271.292969 L 124.816406 271.253906 L 125.496094 271.230469 L 126.179688 271.21875 L 126.863281 271.214844 L 127.546875 271.226562 L 128.230469 271.25 L 128.914062 271.285156 L 129.59375 271.332031 L 130.277344 271.394531 L 130.957031 271.464844 L 131.632812 271.546875 L 132.3125 271.640625 L 132.988281 271.75 L 133.660156 271.867188 L 134.332031 271.996094 L 135 272.140625 L 135.664062 272.292969 L 136.328125 272.460938 L 136.988281 272.636719 L 137.644531 272.824219 L 138.296875 273.027344 L 138.949219 273.238281 L 139.59375 273.460938 L 140.234375 273.695312 L 140.875 273.941406 L 141.507812 274.199219 L 142.136719 274.464844 L 142.761719 274.746094 L 143.378906 275.035156 L 143.992188 275.335938 L 144.601562 275.648438 L 145.203125 275.96875 L 145.800781 276.300781 L 146.390625 276.644531 L 146.976562 277 L 147.554688 277.363281 L 148.128906 277.734375 L 148.695312 278.117188 L 149.253906 278.511719 L 149.804688 278.914062 L 150.347656 279.328125 L 150.886719 279.75 L 151.417969 280.183594 L 151.9375 280.625 L 152.453125 281.074219 L 152.957031 281.535156 L 153.457031 282 L 153.945312 282.476562 L 154.429688 282.964844 L 154.902344 283.457031 L 155.367188 283.957031 L 155.820312 284.46875 L 156.265625 284.984375 L 156.703125 285.511719 L 157.132812 286.042969 L 157.550781 286.585938 L 157.957031 287.132812 L 158.359375 287.6875 L 158.746094 288.25 L 159.125 288.816406 L 159.496094 289.394531 L 159.855469 289.976562 L 160.203125 290.5625 L 160.542969 291.15625 L 160.871094 291.757812 L 161.1875 292.359375 L 161.492188 292.972656 L 161.789062 293.589844 L 162.074219 294.210938 L 162.347656 294.835938 L 162.613281 295.464844 L 162.863281 296.101562 L 163.105469 296.742188 L 163.335938 297.386719 L 163.554688 298.03125 L 163.757812 298.683594 L 163.953125 299.339844 L 164.140625 299.996094 L 164.3125 300.660156 L 164.472656 301.324219 L 164.621094 301.988281 L 164.757812 302.660156 L 164.882812 303.332031 L 164.996094 304.003906 L 165.097656 304.679688 L 165.1875 305.359375 L 165.265625 306.039062 L 165.332031 306.71875 L 165.386719 307.398438 L 165.425781 308.082031 L 165.457031 308.765625 L 165.476562 309.449219 L 165.480469 310.132812 Z M 218.132812 310.132812 "/>
<path fill-rule="nonzero" fill="rgb(21.960784%, 59.607846%, 14.901961%)" fill-opacity="1" stroke-width="6" stroke-linecap="butt" stroke-linejoin="miter" stroke="rgb(100%, 100%, 100%)" stroke-opacity="1" stroke-miterlimit="2" d="M 40.519531 278.8125 L 39.980469 280.339844 L 39.46875 281.875 L 38.980469 283.417969 L 38.523438 284.96875 L 38.09375 286.53125 L 37.691406 288.097656 L 37.3125 289.671875 L 36.964844 291.25 L 36.648438 292.839844 L 36.355469 294.429688 L 36.09375 296.027344 L 35.855469 297.628906 L 35.648438 299.234375 L 35.472656 300.839844 L 35.320312 302.453125 L 35.199219 304.066406 L 35.105469 305.683594 L 35.042969 307.300781 L 35.007812 308.917969 L 35 310.535156 L 35.019531 312.152344 L 35.070312 313.773438 L 35.148438 315.386719 L 35.257812 317.003906 L 35.394531 318.617188 L 35.558594 320.226562 L 35.75 321.832031 L 35.972656 323.433594 L 36.21875 325.035156 L 36.496094 326.628906 L 36.804688 328.21875 L 37.136719 329.800781 L 37.5 331.378906 L 37.886719 332.949219 L 38.304688 334.511719 L 38.75 336.070312 L 39.222656 337.617188 L 39.722656 339.15625 L 40.246094 340.6875 L 40.800781 342.207031 L 41.382812 343.71875 L 41.988281 345.21875 L 42.621094 346.707031 L 43.28125 348.1875 L 43.96875 349.652344 L 44.679688 351.105469 L 45.414062 352.546875 L 46.175781 353.972656 L 46.964844 355.386719 L 47.777344 356.789062 L 48.613281 358.171875 L 49.476562 359.542969 L 50.359375 360.898438 L 51.269531 362.238281 L 52.203125 363.558594 L 53.160156 364.863281 L 54.136719 366.152344 L 55.136719 367.425781 L 56.164062 368.679688 L 57.207031 369.914062 L 58.273438 371.128906 L 59.363281 372.328125 L 60.472656 373.503906 L 61.605469 374.664062 L 62.753906 375.800781 L 63.925781 376.917969 L 65.117188 378.015625 L 66.324219 379.089844 L 67.554688 380.144531 L 68.800781 381.175781 L 70.0625 382.1875 L 71.347656 383.175781 L 72.644531 384.140625 L 73.960938 385.078125 L 75.296875 386 L 76.644531 386.890625 L 78.007812 387.761719 L 79.386719 388.609375 L 80.78125 389.429688 L 107.109375 343.832031 L 106.515625 343.484375 L 105.929688 343.125 L 105.347656 342.753906 L 104.777344 342.375 L 104.210938 341.984375 L 103.648438 341.585938 L 103.097656 341.175781 L 102.550781 340.753906 L 102.015625 340.324219 L 101.484375 339.886719 L 100.964844 339.4375 L 100.449219 338.980469 L 99.945312 338.515625 L 99.445312 338.042969 L 98.957031 337.558594 L 98.476562 337.066406 L 98.003906 336.566406 L 97.542969 336.054688 L 97.089844 335.539062 L 96.644531 335.015625 L 96.210938 334.480469 L 95.785156 333.941406 L 95.367188 333.394531 L 94.960938 332.839844 L 94.566406 332.277344 L 94.179688 331.707031 L 93.800781 331.132812 L 93.4375 330.550781 L 93.082031 329.960938 L 92.734375 329.367188 L 92.402344 328.765625 L 92.078125 328.15625 L 91.761719 327.546875 L 91.460938 326.925781 L 91.167969 326.304688 L 90.890625 325.675781 L 90.621094 325.042969 L 90.363281 324.40625 L 90.117188 323.765625 L 89.878906 323.117188 L 89.65625 322.46875 L 89.445312 321.8125 L 89.242188 321.15625 L 89.054688 320.492188 L 88.878906 319.828125 L 88.710938 319.160156 L 88.558594 318.492188 L 88.417969 317.816406 L 88.285156 317.144531 L 88.167969 316.464844 L 88.0625 315.785156 L 87.96875 315.105469 L 87.886719 314.421875 L 87.816406 313.738281 L 87.757812 313.050781 L 87.714844 312.367188 L 87.679688 311.679688 L 87.660156 310.992188 L 87.648438 310.304688 L 87.652344 309.617188 L 87.667969 308.929688 L 87.695312 308.242188 L 87.734375 307.554688 L 87.785156 306.867188 L 87.851562 306.183594 L 87.925781 305.5 L 88.015625 304.816406 L 88.113281 304.136719 L 88.226562 303.457031 L 88.351562 302.78125 L 88.484375 302.109375 L 88.632812 301.4375 L 88.792969 300.765625 L 88.964844 300.101562 L 89.148438 299.4375 L 89.34375 298.777344 L 89.550781 298.121094 L 89.765625 297.46875 L 89.996094 296.820312 Z M 40.519531 278.8125 "/>
<path fill-rule="nonzero" fill="rgb(79.215688%, 23.529412%, 20%)" fill-opacity="1" stroke-width="6" stroke-linecap="butt" stroke-linejoin="miter" stroke="rgb(100%, 100%, 100%)" stroke-opacity="1" stroke-miterlimit="2" d="M 80.78125 389.429688 L 82.171875 390.21875 L 83.578125 390.980469 L 84.996094 391.71875 L 86.425781 392.429688 L 87.867188 393.117188 L 89.320312 393.78125 L 90.789062 394.417969 L 92.265625 395.03125 L 93.75 395.617188 L 95.246094 396.175781 L 96.753906 396.710938 L 98.269531 397.214844 L 99.792969 397.695312 L 101.328125 398.152344 L 102.867188 398.578125 L 104.414062 398.976562 L 105.96875 399.351562 L 107.527344 399.695312 L 109.09375 400.015625 L 110.664062 400.304688 L 112.242188 400.570312 L 113.820312 400.804688 L 115.40625 401.015625 L 116.996094 401.195312 L 118.585938 401.347656 L 120.179688 401.476562 L 121.773438 401.570312 L 123.371094 401.640625 L 124.96875 401.683594 L 126.566406 401.699219 L 128.164062 401.683594 L 129.761719 401.640625 L 131.359375 401.570312 L 132.953125 401.476562 L 134.546875 401.347656 L 136.136719 401.195312 L 137.726562 401.015625 L 139.308594 400.804688 L 140.890625 400.570312 L 142.464844 400.304688 L 144.039062 400.015625 L 145.601562 399.695312 L 147.164062 399.351562 L 148.71875 398.976562 L 150.265625 398.578125 L 151.804688 398.152344 L 153.335938 397.695312 L 154.859375 397.214844 L 156.375 396.710938 L 157.882812 396.175781 L 159.378906 395.617188 L 160.867188 395.03125 L 162.34375 394.417969 L 163.808594 393.78125 L 165.261719 393.117188 L 166.707031 392.429688 L 168.136719 391.71875 L 169.554688 390.980469 L 170.957031 390.21875 L 172.347656 389.429688 L 173.726562 388.617188 L 175.089844 387.785156 L 176.4375 386.925781 L 177.769531 386.042969 L 179.085938 385.136719 L 180.386719 384.210938 L 181.671875 383.257812 L 182.941406 382.285156 L 184.191406 381.292969 L 185.421875 380.273438 L 186.636719 379.238281 L 187.835938 378.179688 L 189.015625 377.097656 L 190.171875 376 L 191.3125 374.878906 L 192.433594 373.738281 L 193.53125 372.578125 L 194.613281 371.402344 L 195.671875 370.203125 L 196.710938 368.988281 L 197.726562 367.757812 L 198.722656 366.503906 L 199.695312 365.238281 L 200.644531 363.953125 L 201.574219 362.652344 L 202.476562 361.335938 L 203.359375 360 L 204.21875 358.652344 L 205.054688 357.292969 L 205.863281 355.914062 L 206.652344 354.523438 L 207.414062 353.117188 L 208.152344 351.703125 L 208.863281 350.269531 L 209.554688 348.828125 L 210.214844 347.375 L 210.851562 345.910156 L 211.464844 344.433594 L 212.050781 342.945312 L 212.609375 341.449219 L 213.144531 339.941406 L 213.652344 338.425781 L 214.132812 336.902344 L 214.585938 335.371094 L 215.011719 333.832031 L 215.414062 332.28125 L 215.785156 330.730469 L 216.132812 329.167969 L 216.449219 327.601562 L 216.742188 326.03125 L 217.003906 324.457031 L 217.242188 322.875 L 217.449219 321.289062 L 217.628906 319.703125 L 217.785156 318.113281 L 217.910156 316.519531 L 218.007812 314.921875 L 218.078125 313.328125 L 218.117188 311.730469 L 218.132812 310.132812 L 165.480469 310.132812 L 165.476562 310.808594 L 165.457031 311.488281 L 165.429688 312.167969 L 165.386719 312.847656 L 165.332031 313.523438 L 165.269531 314.199219 L 165.191406 314.875 L 165.101562 315.546875 L 165.003906 316.21875 L 164.890625 316.890625 L 164.765625 317.558594 L 164.632812 318.222656 L 164.484375 318.886719 L 164.324219 319.546875 L 164.15625 320.203125 L 163.972656 320.859375 L 163.78125 321.507812 L 163.578125 322.15625 L 163.359375 322.800781 L 163.132812 323.441406 L 162.898438 324.078125 L 162.648438 324.710938 L 162.386719 325.335938 L 162.117188 325.960938 L 161.835938 326.578125 L 161.542969 327.191406 L 161.238281 327.796875 L 160.925781 328.402344 L 160.601562 328.996094 L 160.269531 329.589844 L 159.921875 330.175781 L 159.566406 330.753906 L 159.203125 331.328125 L 158.828125 331.894531 L 158.445312 332.453125 L 158.050781 333.003906 L 157.644531 333.550781 L 157.230469 334.089844 L 156.808594 334.621094 L 156.375 335.144531 L 155.9375 335.664062 L 155.484375 336.171875 L 155.027344 336.671875 L 154.558594 337.164062 L 154.082031 337.648438 L 153.597656 338.125 L 153.105469 338.59375 L 152.605469 339.050781 L 152.097656 339.5 L 151.582031 339.941406 L 151.054688 340.375 L 150.523438 340.796875 L 149.984375 341.210938 L 149.441406 341.613281 L 148.886719 342.007812 L 148.328125 342.394531 L 147.761719 342.769531 L 147.1875 343.132812 L 146.609375 343.488281 L 146.023438 343.832031 L 145.433594 344.167969 L 144.835938 344.492188 L 144.234375 344.804688 L 143.625 345.109375 L 143.011719 345.402344 L 142.394531 345.683594 L 141.769531 345.953125 L 141.144531 346.214844 L 140.511719 346.460938 L 139.875 346.699219 L 139.234375 346.925781 L 138.589844 347.140625 L 137.945312 347.347656 L 137.292969 347.539062 L 136.636719 347.722656 L 135.980469 347.890625 L 135.320312 348.050781 L 134.65625 348.195312 L 133.992188 348.332031 L 133.324219 348.457031 L 132.652344 348.566406 L 131.980469 348.667969 L 131.308594 348.757812 L 130.632812 348.832031 L 129.957031 348.898438 L 129.28125 348.953125 L 128.601562 348.992188 L 127.921875 349.023438 L 127.246094 349.042969 L 126.566406 349.046875 L 125.886719 349.042969 L 125.207031 349.023438 L 124.527344 348.992188 L 123.851562 348.953125 L 123.175781 348.898438 L 122.496094 348.832031 L 121.824219 348.757812 L 121.148438 348.667969 L 120.476562 348.566406 L 119.808594 348.457031 L 119.140625 348.332031 L 118.472656 348.195312 L 117.8125 348.050781 L 117.152344 347.890625 L 116.492188 347.722656 L 115.839844 347.539062 L 115.1875 347.347656 L 114.539062 347.140625 L 113.894531 346.925781 L 113.253906 346.699219 L 112.621094 346.460938 L 111.988281 346.214844 L 111.359375 345.953125 L 110.738281 345.683594 L 110.117188 345.402344 L 109.507812 345.109375 L 108.898438 344.804688 L 108.296875 344.492188 L 107.699219 344.167969 L 107.109375 343.832031 Z M 80.78125 389.429688 "/>
</svg>
