<?xml version="1.0" encoding="UTF-8"?>
<svg xmlns="http://www.w3.org/2000/svg" xmlns:xlink="http://www.w3.org/1999/xlink" width="450" height="450" viewBox="0 0 450 450">
<path fill-rule="nonzero" fill="rgb(21.960784%, 59.607846%, 14.901961%)" fill-opacity="1" d="M 305.355469 183.765625 L 306.117188 182.34375 L 306.851562 180.910156 L 307.5625 179.464844 L 308.246094 178.003906 L 308.90625 176.53125 L 309.539062 175.050781 L 310.144531 173.554688 L 310.722656 172.050781 L 311.277344 170.539062 L 311.804688 169.015625 L 312.304688 167.480469 L 312.777344 165.941406 L 313.222656 164.390625 L 313.640625 162.835938 L 314.03125 161.269531 L 314.390625 159.699219 L 314.726562 158.121094 L 315.035156 156.539062 L 315.316406 154.953125 L 315.566406 153.359375 L 315.789062 151.765625 L 315.984375 150.164062 L 316.152344 148.5625 L 316.292969 146.953125 L 316.402344 145.347656 L 316.484375 143.738281 L 316.539062 142.125 L 316.5625 140.515625 L 316.5625 138.902344 L 316.53125 137.289062 L 316.46875 135.679688 L 316.382812 134.070312 L 316.265625 132.460938 L 316.121094 130.855469 L 315.949219 129.253906 L 315.746094 127.652344 L 315.519531 126.058594 L 315.261719 124.46875 L 314.976562 122.878906 L 314.664062 121.300781 L 314.324219 119.722656 L 313.953125 118.15625 L 313.558594 116.59375 L 313.136719 115.035156 L 312.683594 113.488281 L 312.207031 111.949219 L 311.703125 110.417969 L 311.167969 108.898438 L 310.609375 107.382812 L 310.027344 105.882812 L 309.414062 104.390625 L 308.777344 102.910156 L 308.113281 101.441406 L 307.425781 99.984375 L 306.710938 98.539062 L 305.96875 97.105469 L 305.203125 95.6875 L 304.414062 94.285156 L 303.597656 92.890625 L 302.757812 91.515625 L 301.894531 90.15625 L 301.007812 88.808594 L 300.097656 87.480469 L 299.164062 86.164062 L 298.207031 84.867188 L 297.226562 83.585938 L 296.226562 82.324219 L 295.203125 81.078125 L 294.15625 79.851562 L 293.089844 78.644531 L 292 77.457031 L 290.890625 76.285156 L 289.761719 75.136719 L 288.613281 74.003906 L 287.445312 72.894531 L 286.253906 71.808594 L 285.046875 70.738281 L 283.820312 69.691406 L 282.578125 68.667969 L 281.3125 67.664062 L 280.035156 66.683594 L 278.738281 65.726562 L 277.425781 64.792969 L 247.28125 107.960938 L 247.839844 108.359375 L 248.390625 108.765625 L 248.933594 109.179688 L 249.46875 109.609375 L 250 110.042969 L 250.519531 110.488281 L 251.035156 110.941406 L 251.539062 111.402344 L 252.035156 111.875 L 252.523438 112.355469 L 253.003906 112.84375 L 253.476562 113.34375 L 253.9375 113.847656 L 254.390625 114.359375 L 254.835938 114.882812 L 255.269531 115.410156 L 255.695312 115.949219 L 256.113281 116.492188 L 256.519531 117.042969 L 256.917969 117.601562 L 257.304688 118.167969 L 257.679688 118.738281 L 258.046875 119.316406 L 258.40625 119.902344 L 258.75 120.492188 L 259.085938 121.089844 L 259.410156 121.695312 L 259.726562 122.304688 L 260.03125 122.917969 L 260.324219 123.535156 L 260.605469 124.160156 L 260.875 124.789062 L 261.136719 125.421875 L 261.382812 126.0625 L 261.621094 126.703125 L 261.847656 127.351562 L 262.0625 128.003906 L 262.265625 128.65625 L 262.457031 129.3125 L 262.636719 129.976562 L 262.804688 130.640625 L 262.960938 131.304688 L 263.105469 131.976562 L 263.238281 132.648438 L 263.359375 133.320312 L 263.46875 134 L 263.566406 134.675781 L 263.652344 135.355469 L 263.726562 136.039062 L 263.789062 136.71875 L 263.835938 137.402344 L 263.875 138.085938 L 263.898438 138.773438 L 263.914062 139.457031 L 263.914062 140.140625 L 263.902344 140.828125 L 263.878906 141.511719 L 263.847656 142.195312 L 263.796875 142.878906 L 263.738281 143.5625 L 263.667969 144.242188 L 263.585938 144.921875 L 263.492188 145.601562 L 263.382812 146.277344 L 263.265625 146.953125 L 263.132812 147.625 L 262.992188 148.296875 L 262.835938 148.964844 L 262.671875 149.628906 L 262.492188 150.289062 L 262.304688 150.949219 L 262.105469 151.601562 L 261.890625 152.253906 L 261.667969 152.902344 L 261.433594 153.546875 L 261.1875 154.183594 L 260.929688 154.820312 L 260.660156 155.449219 L 260.378906 156.074219 L 260.089844 156.695312 L 259.789062 157.308594 L 259.476562 157.921875 L 259.152344 158.523438 Z M 305.355469 183.765625 "/>
<path fill-rule="nonzero" fill="rgb(58.823532%, 34.509805%, 69.803923%)" fill-opacity="1" d="M 265.933594 57.960938 L 264.492188 57.253906 L 263.035156 56.574219 L 261.566406 55.917969 L 260.089844 55.289062 L 258.597656 54.6875 L 257.097656 54.109375 L 255.589844 53.5625 L 254.070312 53.039062 L 252.539062 52.539062 L 251.003906 52.070312 L 249.457031 51.628906 L 247.90625 51.210938 L 246.347656 50.824219 L 244.78125 50.460938 L 243.207031 50.128906 L 241.628906 49.824219 L 240.046875 49.546875 L 238.460938 49.296875 L 236.867188 49.074219 L 235.273438 48.878906 L 233.675781 48.710938 L 232.074219 48.574219 L 230.46875 48.464844 L 228.863281 48.382812 L 227.257812 48.328125 L 225.652344 48.304688 L 224.042969 48.304688 L 222.4375 48.335938 L 220.832031 48.394531 L 219.226562 48.484375 L 217.625 48.597656 L 216.023438 48.742188 L 214.425781 48.914062 L 212.832031 49.113281 L 211.238281 49.339844 L 209.652344 49.597656 L 208.070312 49.878906 L 206.492188 50.191406 L 204.921875 50.527344 L 203.359375 50.894531 L 201.800781 51.289062 L 200.25 51.710938 L 198.703125 52.15625 L 197.167969 52.632812 L 195.644531 53.132812 L 194.125 53.664062 L 192.617188 54.21875 L 191.117188 54.800781 L 189.628906 55.40625 L 188.152344 56.042969 L 186.6875 56.699219 L 185.234375 57.386719 L 183.792969 58.097656 L 182.363281 58.832031 L 180.949219 59.59375 L 179.546875 60.378906 L 178.160156 61.1875 L 176.785156 62.023438 L 175.425781 62.882812 L 174.082031 63.761719 L 172.753906 64.667969 L 171.441406 65.597656 L 170.148438 66.546875 L 168.867188 67.523438 L 167.609375 68.519531 L 166.363281 69.535156 L 165.140625 70.578125 L 163.933594 71.636719 L 162.746094 72.71875 L 161.574219 73.824219 L 160.425781 74.945312 L 159.296875 76.089844 L 158.1875 77.253906 L 157.097656 78.4375 L 156.03125 79.636719 L 154.984375 80.855469 L 153.960938 82.09375 L 152.957031 83.351562 L 151.976562 84.625 L 151.015625 85.914062 L 150.082031 87.21875 L 149.167969 88.542969 L 148.28125 89.882812 L 147.414062 91.234375 L 146.574219 92.605469 L 145.753906 93.988281 L 144.960938 95.386719 L 144.195312 96.796875 L 143.449219 98.222656 L 142.734375 99.660156 L 142.039062 101.113281 L 141.371094 102.574219 L 140.730469 104.046875 L 140.113281 105.53125 L 139.523438 107.027344 L 138.960938 108.53125 L 138.425781 110.046875 L 137.914062 111.570312 L 137.433594 113.105469 L 136.976562 114.644531 L 136.546875 116.195312 L 136.144531 117.75 L 135.769531 119.3125 L 135.421875 120.882812 L 135.105469 122.457031 L 134.8125 124.039062 L 134.546875 125.621094 L 134.3125 127.210938 L 134.105469 128.804688 L 133.921875 130.402344 L 133.773438 132.003906 L 186.226562 136.523438 L 186.292969 135.84375 L 186.367188 135.167969 L 186.457031 134.488281 L 186.558594 133.8125 L 186.671875 133.140625 L 186.792969 132.46875 L 186.929688 131.796875 L 187.078125 131.132812 L 187.238281 130.46875 L 187.40625 129.804688 L 187.589844 129.148438 L 187.785156 128.492188 L 187.988281 127.839844 L 188.207031 127.195312 L 188.433594 126.550781 L 188.671875 125.910156 L 188.921875 125.273438 L 189.183594 124.644531 L 189.457031 124.015625 L 189.742188 123.394531 L 190.035156 122.78125 L 190.339844 122.167969 L 190.65625 121.5625 L 190.984375 120.964844 L 191.320312 120.367188 L 191.667969 119.78125 L 192.027344 119.199219 L 192.394531 118.625 L 192.773438 118.054688 L 193.160156 117.492188 L 193.558594 116.9375 L 193.964844 116.386719 L 194.382812 115.847656 L 194.808594 115.3125 L 195.242188 114.789062 L 195.6875 114.269531 L 196.140625 113.757812 L 196.605469 113.257812 L 197.074219 112.761719 L 197.554688 112.277344 L 198.042969 111.796875 L 198.542969 111.328125 L 199.046875 110.871094 L 199.558594 110.417969 L 200.078125 109.976562 L 200.609375 109.542969 L 201.144531 109.121094 L 201.6875 108.707031 L 202.238281 108.300781 L 202.796875 107.90625 L 203.359375 107.523438 L 203.929688 107.148438 L 204.507812 106.785156 L 205.09375 106.429688 L 205.683594 106.085938 L 206.277344 105.75 L 206.878906 105.425781 L 207.488281 105.113281 L 208.097656 104.8125 L 208.71875 104.519531 L 209.339844 104.242188 L 209.96875 103.972656 L 210.601562 103.714844 L 211.238281 103.464844 L 211.878906 103.230469 L 212.523438 103.003906 L 213.171875 102.792969 L 213.824219 102.589844 L 214.480469 102.398438 L 215.140625 102.222656 L 215.800781 102.054688 L 216.46875 101.898438 L 217.132812 101.753906 L 217.804688 101.621094 L 218.476562 101.5 L 219.152344 101.394531 L 219.828125 101.296875 L 220.503906 101.210938 L 221.183594 101.140625 L 221.863281 101.078125 L 222.546875 101.027344 L 223.226562 100.992188 L 223.910156 100.964844 L 224.59375 100.953125 L 225.277344 100.953125 L 225.960938 100.964844 L 226.640625 100.984375 L 227.324219 101.019531 L 228.007812 101.066406 L 228.6875 101.125 L 229.367188 101.195312 L 230.042969 101.28125 L 230.71875 101.375 L 231.394531 101.480469 L 232.066406 101.597656 L 232.738281 101.730469 L 233.40625 101.871094 L 234.070312 102.023438 L 234.734375 102.1875 L 235.394531 102.367188 L 236.050781 102.554688 L 236.703125 102.753906 L 237.355469 102.964844 L 238 103.1875 L 238.640625 103.421875 L 239.277344 103.664062 L 239.914062 103.921875 L 240.539062 104.1875 L 241.164062 104.46875 L 241.785156 104.757812 L 242.398438 105.058594 Z M 265.933594 57.960938 "/>
<path fill-rule="nonzero" fill="rgb(79.215688%, 23.529412%, 20%)" fill-opacity="1" d="M 133.597656 145.371094 L 133.710938 146.96875 L 133.847656 148.566406 L 134.015625 150.164062 L 134.207031 151.757812 L 134.429688 153.34375 L 134.679688 154.929688 L 134.957031 156.511719 L 135.265625 158.085938 L 135.597656 159.652344 L 135.957031 161.21875 L 136.34375 162.773438 L 136.761719 164.324219 L 137.203125 165.867188 L 137.671875 167.398438 L 138.167969 168.925781 L 138.6875 170.441406 L 139.238281 171.949219 L 139.8125 173.449219 L 140.414062 174.933594 L 141.042969 176.410156 L 141.695312 177.875 L 142.375 179.332031 L 143.078125 180.773438 L 143.808594 182.199219 L 144.5625 183.617188 L 145.339844 185.019531 L 146.144531 186.40625 L 146.972656 187.78125 L 147.820312 189.140625 L 148.699219 190.488281 L 149.597656 191.816406 L 150.515625 193.128906 L 151.460938 194.425781 L 152.429688 195.707031 L 153.417969 196.96875 L 154.429688 198.214844 L 155.464844 199.441406 L 156.515625 200.648438 L 157.59375 201.839844 L 158.6875 203.011719 L 159.804688 204.164062 L 160.941406 205.296875 L 162.097656 206.410156 L 163.273438 207.5 L 164.46875 208.570312 L 165.679688 209.621094 L 166.910156 210.648438 L 168.160156 211.65625 L 169.425781 212.640625 L 170.710938 213.605469 L 172.011719 214.542969 L 173.328125 215.460938 L 174.660156 216.355469 L 176.007812 217.222656 L 177.371094 218.070312 L 178.746094 218.894531 L 180.140625 219.691406 L 181.542969 220.464844 L 182.964844 221.214844 L 184.394531 221.9375 L 185.839844 222.636719 L 187.296875 223.308594 L 188.761719 223.957031 L 190.242188 224.578125 L 191.730469 225.175781 L 193.230469 225.746094 L 194.738281 226.289062 L 196.257812 226.804688 L 197.785156 227.296875 L 199.324219 227.757812 L 200.867188 228.195312 L 202.417969 228.605469 L 203.976562 228.988281 L 205.539062 229.339844 L 207.109375 229.667969 L 208.6875 229.96875 L 210.269531 230.242188 L 211.851562 230.484375 L 213.441406 230.703125 L 215.035156 230.890625 L 216.632812 231.050781 L 218.230469 231.183594 L 219.832031 231.289062 L 221.433594 231.363281 L 223.039062 231.414062 L 224.640625 231.433594 L 226.246094 231.425781 L 227.851562 231.390625 L 229.453125 231.324219 L 231.054688 231.234375 L 232.65625 231.113281 L 234.25 230.964844 L 235.847656 230.789062 L 237.4375 230.585938 L 239.023438 230.351562 L 240.609375 230.09375 L 242.1875 229.804688 L 243.757812 229.492188 L 245.328125 229.148438 L 246.886719 228.777344 L 248.441406 228.382812 L 249.988281 227.957031 L 251.527344 227.507812 L 253.058594 227.027344 L 254.582031 226.523438 L 256.097656 225.992188 L 257.601562 225.433594 L 259.09375 224.847656 L 260.578125 224.238281 L 262.050781 223.601562 L 263.511719 222.941406 L 264.960938 222.253906 L 266.398438 221.539062 L 267.824219 220.800781 L 269.234375 220.039062 L 270.632812 219.253906 L 272.015625 218.441406 L 273.386719 217.605469 L 274.742188 216.746094 L 276.078125 215.863281 L 277.402344 214.957031 L 278.710938 214.027344 L 280 213.074219 L 281.277344 212.097656 L 282.53125 211.101562 L 283.773438 210.082031 L 284.992188 209.042969 L 286.195312 207.980469 L 287.378906 206.898438 L 288.542969 205.796875 L 289.691406 204.671875 L 290.816406 203.527344 L 291.921875 202.367188 L 293.003906 201.183594 L 294.070312 199.984375 L 295.109375 198.761719 L 296.132812 197.527344 L 297.132812 196.269531 L 298.109375 195 L 256.070312 163.296875 L 255.65625 163.839844 L 255.230469 164.371094 L 254.796875 164.898438 L 254.355469 165.417969 L 253.902344 165.925781 L 253.441406 166.429688 L 252.972656 166.921875 L 252.492188 167.410156 L 252.007812 167.886719 L 251.511719 168.355469 L 251.007812 168.816406 L 250.496094 169.265625 L 249.976562 169.707031 L 249.453125 170.140625 L 248.917969 170.566406 L 248.375 170.980469 L 247.828125 171.382812 L 247.269531 171.78125 L 246.707031 172.164062 L 246.140625 172.539062 L 245.5625 172.90625 L 244.980469 173.261719 L 244.394531 173.605469 L 243.800781 173.941406 L 243.199219 174.265625 L 242.59375 174.578125 L 241.984375 174.882812 L 241.367188 175.171875 L 240.746094 175.453125 L 240.121094 175.726562 L 239.488281 175.984375 L 238.855469 176.234375 L 238.214844 176.46875 L 237.574219 176.695312 L 236.925781 176.910156 L 236.273438 177.113281 L 235.621094 177.304688 L 234.960938 177.484375 L 234.300781 177.65625 L 233.640625 177.8125 L 232.972656 177.957031 L 232.304688 178.089844 L 231.632812 178.214844 L 230.960938 178.324219 L 230.285156 178.421875 L 229.609375 178.507812 L 228.933594 178.582031 L 228.253906 178.648438 L 227.574219 178.699219 L 226.890625 178.738281 L 226.210938 178.765625 L 225.53125 178.777344 L 224.847656 178.78125 L 224.164062 178.773438 L 223.484375 178.753906 L 222.804688 178.722656 L 222.121094 178.675781 L 221.445312 178.621094 L 220.765625 178.550781 L 220.089844 178.472656 L 219.414062 178.378906 L 218.738281 178.277344 L 218.066406 178.160156 L 217.398438 178.03125 L 216.730469 177.894531 L 216.0625 177.742188 L 215.402344 177.582031 L 214.742188 177.40625 L 214.085938 177.222656 L 213.433594 177.023438 L 212.785156 176.816406 L 212.140625 176.597656 L 211.496094 176.367188 L 210.859375 176.125 L 210.226562 175.871094 L 209.597656 175.605469 L 208.976562 175.332031 L 208.355469 175.042969 L 207.742188 174.746094 L 207.132812 174.441406 L 206.53125 174.121094 L 205.933594 173.792969 L 205.34375 173.453125 L 204.757812 173.105469 L 204.179688 172.742188 L 203.605469 172.375 L 203.039062 171.996094 L 202.480469 171.605469 L 201.925781 171.207031 L 201.382812 170.796875 L 200.84375 170.378906 L 200.3125 169.949219 L 199.789062 169.511719 L 199.273438 169.066406 L 198.765625 168.609375 L 198.265625 168.148438 L 197.773438 167.675781 L 197.292969 167.191406 L 196.816406 166.703125 L 196.351562 166.207031 L 195.894531 165.699219 L 195.445312 165.1875 L 195.007812 164.664062 L 194.578125 164.136719 L 194.15625 163.597656 L 193.746094 163.054688 L 193.34375 162.503906 L 192.953125 161.945312 L 192.570312 161.378906 L 192.199219 160.808594 L 191.835938 160.230469 L 191.484375 159.648438 L 191.144531 159.058594 L 190.8125 158.460938 L 190.492188 157.859375 L 190.183594 157.25 L 189.882812 156.640625 L 189.59375 156.019531 L 189.316406 155.398438 L 189.050781 154.769531 L 188.796875 154.140625 L 188.550781 153.503906 L 188.316406 152.863281 L 188.09375 152.21875 L 187.886719 151.570312 L 187.6875 150.917969 L 187.496094 150.261719 L 187.320312 149.601562 L 187.15625 148.941406 L 187.003906 148.277344 L 186.863281 147.609375 L 186.730469 146.941406 L 186.613281 146.269531 L 186.507812 145.59375 L 186.414062 144.921875 L 186.332031 144.242188 L 186.261719 143.566406 L 186.203125 142.886719 L 186.15625 142.207031 Z M 133.597656 145.371094 "/>
<path fill-rule="nonzero" fill="rgb(21.960784%, 59.607846%, 14.901961%)" fill-opacity="1" d="M 263.582031 379.429688 L 264.804688 380.46875 L 266.046875 381.484375 L 267.308594 382.480469 L 268.585938 383.453125 L 269.878906 384.402344 L 271.191406 385.332031 L 272.515625 386.234375 L 273.859375 387.117188 L 275.214844 387.972656 L 276.589844 388.808594 L 277.976562 389.617188 L 279.375 390.402344 L 280.789062 391.160156 L 282.21875 391.898438 L 283.65625 392.605469 L 285.109375 393.292969 L 286.574219 393.949219 L 288.046875 394.585938 L 289.535156 395.191406 L 291.03125 395.773438 L 292.539062 396.328125 L 294.054688 396.855469 L 295.578125 397.359375 L 297.113281 397.832031 L 298.65625 398.28125 L 300.203125 398.703125 L 301.761719 399.09375 L 303.324219 399.460938 L 304.894531 399.800781 L 306.46875 400.113281 L 308.046875 400.394531 L 309.632812 400.652344 L 311.222656 400.878906 L 312.816406 401.078125 L 314.414062 401.25 L 316.011719 401.394531 L 317.613281 401.511719 L 319.214844 401.601562 L 320.820312 401.660156 L 322.425781 401.691406 L 324.03125 401.695312 L 325.636719 401.671875 L 327.242188 401.617188 L 328.84375 401.539062 L 330.445312 401.429688 L 332.046875 401.292969 L 333.644531 401.125 L 335.238281 400.933594 L 336.828125 400.710938 L 338.414062 400.464844 L 339.996094 400.1875 L 341.570312 399.882812 L 343.140625 399.550781 L 344.707031 399.191406 L 346.265625 398.804688 L 347.816406 398.390625 L 349.359375 397.949219 L 350.894531 397.480469 L 352.421875 396.988281 L 353.941406 396.464844 L 355.453125 395.917969 L 356.949219 395.34375 L 358.4375 394.742188 L 359.917969 394.113281 L 361.382812 393.460938 L 362.839844 392.785156 L 364.28125 392.082031 L 365.714844 391.351562 L 367.132812 390.597656 L 368.535156 389.820312 L 369.925781 389.015625 L 371.300781 388.1875 L 372.664062 387.335938 L 374.007812 386.460938 L 375.339844 385.5625 L 376.652344 384.644531 L 377.953125 383.699219 L 379.234375 382.730469 L 380.5 381.742188 L 381.746094 380.730469 L 382.972656 379.695312 L 384.183594 378.640625 L 385.375 377.566406 L 386.550781 376.46875 L 387.703125 375.351562 L 388.835938 374.214844 L 389.949219 373.058594 L 391.042969 371.882812 L 392.117188 370.6875 L 393.167969 369.476562 L 394.195312 368.242188 L 395.203125 366.992188 L 396.191406 365.726562 L 397.152344 364.441406 L 398.09375 363.140625 L 399.011719 361.824219 L 399.90625 360.492188 L 400.777344 359.140625 L 401.625 357.777344 L 402.449219 356.398438 L 403.25 355.007812 L 404.023438 353.601562 L 404.773438 352.179688 L 405.5 350.75 L 406.199219 349.304688 L 406.871094 347.847656 L 407.519531 346.378906 L 408.144531 344.898438 L 408.738281 343.40625 L 409.308594 341.90625 L 409.855469 340.394531 L 410.371094 338.875 L 410.863281 337.347656 L 411.324219 335.808594 L 411.761719 334.265625 L 412.171875 332.710938 L 412.554688 331.152344 L 412.910156 329.585938 L 413.238281 328.015625 L 413.535156 326.4375 L 413.808594 324.855469 L 414.050781 323.269531 L 414.269531 321.679688 L 414.457031 320.082031 L 414.617188 318.488281 L 362.1875 313.683594 L 362.117188 314.359375 L 362.039062 315.039062 L 361.945312 315.714844 L 361.84375 316.390625 L 361.726562 317.0625 L 361.601562 317.730469 L 361.460938 318.398438 L 361.308594 319.066406 L 361.148438 319.726562 L 360.972656 320.386719 L 360.789062 321.042969 L 360.589844 321.699219 L 360.382812 322.347656 L 360.164062 322.992188 L 359.929688 323.636719 L 359.6875 324.273438 L 359.433594 324.90625 L 359.171875 325.535156 L 358.894531 326.160156 L 358.609375 326.78125 L 358.3125 327.394531 L 358.003906 328.003906 L 357.683594 328.605469 L 357.355469 329.203125 L 357.015625 329.796875 L 356.664062 330.382812 L 356.304688 330.960938 L 355.933594 331.535156 L 355.554688 332.101562 L 355.164062 332.660156 L 354.765625 333.214844 L 354.355469 333.757812 L 353.9375 334.296875 L 353.507812 334.828125 L 353.070312 335.351562 L 352.625 335.867188 L 352.167969 336.375 L 351.703125 336.875 L 351.230469 337.367188 L 350.746094 337.851562 L 350.257812 338.324219 L 349.757812 338.789062 L 349.253906 339.25 L 348.738281 339.695312 L 348.214844 340.136719 L 347.6875 340.566406 L 347.148438 340.984375 L 346.605469 341.398438 L 346.050781 341.796875 L 345.492188 342.191406 L 344.929688 342.570312 L 344.355469 342.945312 L 343.777344 343.304688 L 343.191406 343.65625 L 342.601562 344 L 342.003906 344.328125 L 341.402344 344.648438 L 340.792969 344.960938 L 340.179688 345.257812 L 339.5625 345.546875 L 338.9375 345.824219 L 338.3125 346.089844 L 337.679688 346.347656 L 337.042969 346.589844 L 336.398438 346.824219 L 335.753906 347.042969 L 335.105469 347.253906 L 334.453125 347.453125 L 333.796875 347.640625 L 333.136719 347.816406 L 332.476562 347.980469 L 331.808594 348.132812 L 331.140625 348.277344 L 330.472656 348.40625 L 329.800781 348.523438 L 329.125 348.628906 L 328.449219 348.722656 L 327.773438 348.804688 L 327.09375 348.875 L 326.414062 348.933594 L 325.734375 348.980469 L 325.050781 349.011719 L 324.371094 349.035156 L 323.6875 349.046875 L 323.003906 349.042969 L 322.324219 349.03125 L 321.640625 349.003906 L 320.960938 348.96875 L 320.277344 348.917969 L 319.597656 348.859375 L 318.921875 348.785156 L 318.242188 348.699219 L 317.570312 348.601562 L 316.894531 348.492188 L 316.222656 348.371094 L 315.554688 348.242188 L 314.886719 348.097656 L 314.222656 347.941406 L 313.5625 347.773438 L 312.902344 347.59375 L 312.246094 347.40625 L 311.59375 347.203125 L 310.949219 346.988281 L 310.304688 346.765625 L 309.664062 346.527344 L 309.027344 346.28125 L 308.394531 346.023438 L 307.769531 345.753906 L 307.144531 345.472656 L 306.527344 345.183594 L 305.917969 344.882812 L 305.308594 344.570312 L 304.710938 344.246094 L 304.113281 343.914062 L 303.523438 343.570312 L 302.941406 343.214844 L 302.363281 342.851562 L 301.792969 342.476562 L 301.230469 342.089844 L 300.671875 341.695312 L 300.125 341.292969 L 299.582031 340.878906 L 299.042969 340.457031 L 298.515625 340.023438 L 297.996094 339.582031 Z M 263.582031 379.429688 "/>
<path fill-rule="nonzero" fill="rgb(58.823532%, 34.509805%, 69.803923%)" fill-opacity="1" d="M 414.863281 305.121094 L 414.761719 303.507812 L 414.628906 301.898438 L 414.46875 300.289062 L 414.28125 298.683594 L 414.066406 297.082031 L 413.820312 295.484375 L 413.546875 293.894531 L 413.25 292.304688 L 412.917969 290.722656 L 412.5625 289.148438 L 412.179688 287.578125 L 411.765625 286.015625 L 411.328125 284.460938 L 410.859375 282.914062 L 410.367188 281.375 L 409.847656 279.84375 L 409.296875 278.324219 L 408.722656 276.816406 L 408.121094 275.316406 L 407.496094 273.824219 L 406.839844 272.347656 L 406.160156 270.882812 L 405.457031 269.429688 L 404.726562 267.988281 L 403.96875 266.558594 L 403.1875 265.144531 L 402.382812 263.746094 L 401.550781 262.359375 L 400.695312 260.988281 L 399.816406 259.632812 L 398.914062 258.292969 L 397.984375 256.96875 L 397.035156 255.660156 L 396.0625 254.371094 L 395.070312 253.097656 L 394.050781 251.84375 L 393.011719 250.605469 L 391.949219 249.386719 L 390.867188 248.1875 L 389.765625 247.007812 L 388.640625 245.847656 L 387.496094 244.707031 L 386.332031 243.585938 L 385.144531 242.484375 L 383.941406 241.40625 L 382.722656 240.351562 L 381.480469 239.3125 L 380.222656 238.300781 L 378.945312 237.308594 L 377.652344 236.34375 L 376.339844 235.398438 L 375.015625 234.476562 L 373.671875 233.578125 L 372.3125 232.703125 L 370.9375 231.851562 L 369.550781 231.023438 L 368.144531 230.222656 L 366.730469 229.445312 L 365.296875 228.695312 L 363.855469 227.96875 L 362.398438 227.269531 L 360.929688 226.59375 L 359.449219 225.945312 L 357.960938 225.324219 L 356.457031 224.726562 L 354.945312 224.15625 L 353.421875 223.613281 L 351.890625 223.097656 L 350.351562 222.609375 L 334.875 272.933594 L 335.527344 273.140625 L 336.179688 273.363281 L 336.824219 273.59375 L 337.46875 273.835938 L 338.105469 274.085938 L 338.742188 274.351562 L 339.371094 274.628906 L 339.992188 274.914062 L 340.613281 275.210938 L 341.226562 275.519531 L 341.835938 275.839844 L 342.4375 276.171875 L 343.03125 276.511719 L 343.621094 276.863281 L 344.207031 277.222656 L 344.785156 277.59375 L 345.355469 277.976562 L 345.917969 278.367188 L 346.476562 278.769531 L 347.027344 279.183594 L 347.570312 279.601562 L 348.101562 280.035156 L 348.628906 280.472656 L 349.148438 280.921875 L 349.660156 281.382812 L 350.164062 281.847656 L 350.660156 282.324219 L 351.144531 282.808594 L 351.625 283.304688 L 352.09375 283.804688 L 352.554688 284.316406 L 353.003906 284.832031 L 353.445312 285.359375 L 353.878906 285.890625 L 354.300781 286.433594 L 354.714844 286.980469 L 355.117188 287.535156 L 355.511719 288.097656 L 355.894531 288.667969 L 356.269531 289.246094 L 356.632812 289.828125 L 356.984375 290.417969 L 357.328125 291.011719 L 357.660156 291.613281 L 357.984375 292.21875 L 358.292969 292.832031 L 358.59375 293.449219 L 358.882812 294.074219 L 359.160156 294.703125 L 359.425781 295.335938 L 359.683594 295.972656 L 359.925781 296.613281 L 360.160156 297.257812 L 360.378906 297.910156 L 360.589844 298.5625 L 360.789062 299.222656 L 360.976562 299.882812 L 361.152344 300.546875 L 361.3125 301.214844 L 361.464844 301.882812 L 361.605469 302.554688 L 361.734375 303.230469 L 361.847656 303.90625 L 361.953125 304.585938 L 362.042969 305.265625 L 362.125 305.949219 L 362.191406 306.632812 L 362.246094 307.316406 L 362.289062 308 Z M 414.863281 305.121094 "/>
<path fill-rule="nonzero" fill="rgb(79.215688%, 23.529412%, 20%)" fill-opacity="1" d="M 337.320312 219.625 L 335.734375 219.394531 L 334.140625 219.191406 L 332.546875 219.019531 L 330.949219 218.875 L 329.351562 218.757812 L 327.75 218.667969 L 326.144531 218.605469 L 324.542969 218.570312 L 322.9375 218.566406 L 321.332031 218.589844 L 319.730469 218.640625 L 318.128906 218.71875 L 316.527344 218.824219 L 314.929688 218.960938 L 313.332031 219.125 L 311.738281 219.316406 L 310.148438 219.535156 L 308.566406 219.78125 L 306.984375 220.054688 L 305.410156 220.355469 L 303.839844 220.6875 L 302.273438 221.042969 L 300.714844 221.425781 L 299.167969 221.839844 L 297.625 222.277344 L 296.085938 222.742188 L 294.5625 223.234375 L 293.042969 223.753906 L 291.535156 224.300781 L 290.035156 224.871094 L 288.546875 225.472656 L 287.070312 226.09375 L 285.601562 226.746094 L 284.148438 227.421875 L 282.703125 228.121094 L 281.273438 228.847656 L 279.855469 229.597656 L 278.453125 230.375 L 277.0625 231.175781 L 275.6875 232 L 274.324219 232.847656 L 272.976562 233.71875 L 271.648438 234.617188 L 270.332031 235.535156 L 269.03125 236.476562 L 267.75 237.441406 L 266.484375 238.425781 L 265.238281 239.4375 L 264.007812 240.46875 L 262.796875 241.519531 L 261.605469 242.589844 L 260.429688 243.683594 L 259.277344 244.800781 L 258.140625 245.933594 L 257.027344 247.085938 L 255.933594 248.261719 L 254.859375 249.453125 L 253.808594 250.664062 L 252.777344 251.890625 L 251.765625 253.136719 L 250.777344 254.402344 L 249.8125 255.683594 L 248.871094 256.980469 L 247.949219 258.296875 L 247.054688 259.628906 L 246.179688 260.972656 L 245.332031 262.335938 L 244.507812 263.710938 L 243.707031 265.097656 L 242.929688 266.503906 L 242.175781 267.921875 L 241.449219 269.351562 L 240.746094 270.792969 L 240.070312 272.246094 L 239.421875 273.714844 L 238.796875 275.191406 L 238.195312 276.679688 L 237.625 278.179688 L 237.078125 279.6875 L 236.554688 281.203125 L 236.0625 282.730469 L 235.597656 284.265625 L 235.15625 285.808594 L 234.746094 287.359375 L 234.359375 288.914062 L 234 290.480469 L 233.671875 292.050781 L 233.367188 293.625 L 233.09375 295.207031 L 232.84375 296.789062 L 232.625 298.378906 L 232.433594 299.972656 L 232.269531 301.566406 L 232.132812 303.167969 L 232.023438 304.765625 L 231.945312 306.371094 L 231.894531 307.972656 L 231.867188 309.578125 L 231.875 311.179688 L 231.90625 312.785156 L 231.964844 314.386719 L 232.054688 315.988281 L 232.171875 317.589844 L 232.316406 319.1875 L 232.488281 320.78125 L 232.6875 322.375 L 232.917969 323.960938 L 233.175781 325.546875 L 233.457031 327.125 L 233.769531 328.699219 L 234.109375 330.265625 L 234.476562 331.828125 L 234.867188 333.382812 L 235.289062 334.933594 L 235.738281 336.472656 L 236.210938 338.003906 L 236.714844 339.527344 L 237.242188 341.042969 L 237.796875 342.546875 L 238.378906 344.042969 L 238.984375 345.527344 L 239.617188 347.003906 L 240.277344 348.464844 L 240.960938 349.917969 L 241.671875 351.355469 L 242.40625 352.78125 L 243.167969 354.195312 L 243.949219 355.59375 L 244.757812 356.980469 L 245.59375 358.351562 L 246.449219 359.707031 L 247.328125 361.046875 L 248.234375 362.375 L 249.160156 363.683594 L 250.109375 364.976562 L 251.082031 366.253906 L 252.074219 367.511719 L 253.09375 368.753906 L 254.128906 369.976562 L 293.980469 335.566406 L 293.539062 335.046875 L 293.105469 334.515625 L 292.683594 333.984375 L 292.269531 333.441406 L 291.867188 332.890625 L 291.472656 332.335938 L 291.089844 331.769531 L 290.714844 331.199219 L 290.351562 330.625 L 289.996094 330.042969 L 289.652344 329.453125 L 289.320312 328.859375 L 288.996094 328.257812 L 288.683594 327.652344 L 288.382812 327.039062 L 288.09375 326.421875 L 287.8125 325.800781 L 287.542969 325.175781 L 287.285156 324.542969 L 287.039062 323.910156 L 286.800781 323.269531 L 286.578125 322.625 L 286.363281 321.976562 L 286.164062 321.324219 L 285.972656 320.671875 L 285.792969 320.011719 L 285.625 319.351562 L 285.46875 318.6875 L 285.328125 318.023438 L 285.195312 317.351562 L 285.074219 316.683594 L 284.964844 316.007812 L 284.867188 315.335938 L 284.78125 314.65625 L 284.707031 313.980469 L 284.648438 313.300781 L 284.597656 312.621094 L 284.558594 311.941406 L 284.535156 311.257812 L 284.519531 310.578125 L 284.519531 309.894531 L 284.527344 309.214844 L 284.550781 308.53125 L 284.585938 307.851562 L 284.628906 307.171875 L 284.6875 306.492188 L 284.757812 305.8125 L 284.839844 305.136719 L 284.933594 304.460938 L 285.039062 303.789062 L 285.15625 303.117188 L 285.285156 302.445312 L 285.425781 301.777344 L 285.578125 301.113281 L 285.742188 300.453125 L 285.914062 299.792969 L 286.101562 299.136719 L 286.300781 298.484375 L 286.511719 297.835938 L 286.730469 297.191406 L 286.964844 296.550781 L 287.207031 295.914062 L 287.460938 295.28125 L 287.726562 294.652344 L 288.003906 294.03125 L 288.292969 293.414062 L 288.589844 292.800781 L 288.898438 292.191406 L 289.21875 291.589844 L 289.550781 290.992188 L 289.890625 290.402344 L 290.242188 289.816406 L 290.601562 289.238281 L 290.972656 288.667969 L 291.355469 288.101562 L 291.746094 287.542969 L 292.144531 286.992188 L 292.554688 286.445312 L 292.976562 285.910156 L 293.402344 285.378906 L 293.84375 284.855469 L 294.289062 284.34375 L 294.746094 283.835938 L 295.210938 283.335938 L 295.683594 282.847656 L 296.167969 282.363281 L 296.65625 281.890625 L 297.15625 281.425781 L 297.664062 280.972656 L 298.179688 280.523438 L 298.699219 280.085938 L 299.230469 279.65625 L 299.769531 279.238281 L 300.3125 278.828125 L 300.867188 278.425781 L 301.425781 278.039062 L 301.988281 277.65625 L 302.5625 277.285156 L 303.140625 276.925781 L 303.726562 276.574219 L 304.316406 276.234375 L 304.914062 275.90625 L 305.515625 275.585938 L 306.125 275.277344 L 306.738281 274.980469 L 307.355469 274.691406 L 307.980469 274.414062 L 308.605469 274.152344 L 309.238281 273.894531 L 309.875 273.652344 L 310.519531 273.421875 L 311.164062 273.199219 L 311.8125 272.992188 L 312.464844 272.792969 L 313.121094 272.605469 L 313.777344 272.433594 L 314.441406 272.269531 L 315.105469 272.117188 L 315.773438 271.976562 L 316.441406 271.847656 L 317.113281 271.730469 L 317.789062 271.628906 L 318.464844 271.535156 L 319.140625 271.453125 L 319.820312 271.382812 L 320.5 271.328125 L 321.179688 271.28125 L 321.859375 271.246094 L 322.539062 271.226562 L 323.222656 271.214844 L 323.90625 271.21875 L 324.585938 271.230469 L 325.265625 271.257812 L 325.949219 271.296875 L 326.628906 271.347656 L 327.308594 271.410156 L 327.984375 271.480469 L 328.660156 271.566406 L 329.335938 271.664062 Z M 337.320312 219.625 "/>
<path fill-rule="nonzero" fill="rgb(58.823532%, 34.509805%, 69.803923%)" fill-opacity="1" d="M 218.132812 310.132812 L 218.117188 308.527344 L 218.074219 306.921875 L 218.003906 305.320312 L 217.90625 303.71875 L 217.78125 302.121094 L 217.625 300.523438 L 217.445312 298.929688 L 217.234375 297.339844 L 216.996094 295.753906 L 216.730469 294.171875 L 216.4375 292.59375 L 216.117188 291.019531 L 215.765625 289.457031 L 215.390625 287.894531 L 214.988281 286.34375 L 214.558594 284.796875 L 214.101562 283.257812 L 213.617188 281.730469 L 213.105469 280.210938 L 212.566406 278.699219 L 212.003906 277.195312 L 211.414062 275.703125 L 210.796875 274.222656 L 210.15625 272.753906 L 209.488281 271.292969 L 208.796875 269.847656 L 208.078125 268.414062 L 207.332031 266.992188 L 206.566406 265.582031 L 205.773438 264.1875 L 204.957031 262.808594 L 204.113281 261.441406 L 203.25 260.089844 L 202.359375 258.753906 L 201.449219 257.433594 L 200.515625 256.128906 L 199.558594 254.84375 L 198.578125 253.574219 L 197.574219 252.320312 L 196.550781 251.085938 L 195.507812 249.867188 L 194.441406 248.667969 L 193.351562 247.488281 L 192.246094 246.328125 L 191.117188 245.1875 L 189.96875 244.066406 L 188.800781 242.96875 L 187.617188 241.886719 L 186.410156 240.828125 L 185.1875 239.789062 L 183.945312 238.773438 L 182.6875 237.78125 L 181.410156 236.808594 L 180.117188 235.859375 L 178.808594 234.929688 L 177.484375 234.027344 L 176.140625 233.148438 L 174.785156 232.289062 L 173.414062 231.457031 L 172.027344 230.648438 L 170.628906 229.863281 L 169.214844 229.105469 L 167.789062 228.371094 L 166.351562 227.660156 L 164.902344 226.976562 L 163.4375 226.316406 L 161.964844 225.683594 L 160.480469 225.078125 L 158.984375 224.496094 L 157.480469 223.941406 L 155.964844 223.414062 L 154.441406 222.910156 L 152.90625 222.433594 L 151.367188 221.988281 L 149.820312 221.566406 L 148.265625 221.171875 L 146.703125 220.804688 L 145.132812 220.46875 L 143.558594 220.15625 L 141.980469 219.871094 L 140.398438 219.617188 L 138.808594 219.386719 L 137.21875 219.1875 L 135.625 219.015625 L 134.027344 218.867188 L 132.425781 218.753906 L 130.824219 218.664062 L 129.21875 218.601562 L 127.617188 218.570312 L 126.011719 218.566406 L 124.410156 218.589844 L 122.804688 218.640625 L 121.203125 218.722656 L 119.601562 218.828125 L 118.003906 218.964844 L 116.40625 219.128906 L 114.816406 219.320312 L 113.226562 219.542969 L 111.640625 219.789062 L 110.058594 220.066406 L 108.484375 220.367188 L 106.914062 220.699219 L 105.351562 221.054688 L 103.792969 221.441406 L 102.242188 221.855469 L 100.699219 222.292969 L 99.164062 222.761719 L 97.640625 223.253906 L 96.121094 223.773438 L 94.613281 224.320312 L 93.113281 224.894531 L 91.625 225.492188 L 90.148438 226.117188 L 88.683594 226.769531 L 87.226562 227.445312 L 85.785156 228.148438 L 84.355469 228.875 L 82.9375 229.625 L 81.535156 230.402344 L 80.144531 231.203125 L 78.769531 232.027344 L 77.410156 232.878906 L 76.0625 233.75 L 74.730469 234.648438 L 73.417969 235.566406 L 72.121094 236.511719 L 70.839844 237.476562 L 69.574219 238.464844 L 68.328125 239.472656 L 67.097656 240.503906 L 65.886719 241.554688 L 64.695312 242.628906 L 63.523438 243.722656 L 62.367188 244.839844 L 61.234375 245.972656 L 60.121094 247.128906 L 59.027344 248.300781 L 57.953125 249.496094 L 56.902344 250.707031 L 96.957031 284.875 L 97.40625 284.359375 L 97.863281 283.855469 L 98.328125 283.355469 L 98.800781 282.863281 L 99.28125 282.382812 L 99.773438 281.90625 L 100.269531 281.441406 L 100.777344 280.988281 L 101.292969 280.539062 L 101.8125 280.101562 L 102.34375 279.671875 L 102.882812 279.253906 L 103.425781 278.84375 L 103.976562 278.441406 L 104.535156 278.050781 L 105.101562 277.667969 L 105.675781 277.296875 L 106.253906 276.9375 L 106.835938 276.585938 L 107.429688 276.246094 L 108.023438 275.917969 L 108.625 275.597656 L 109.234375 275.289062 L 109.847656 274.988281 L 110.464844 274.703125 L 111.089844 274.425781 L 111.71875 274.160156 L 112.347656 273.90625 L 112.984375 273.660156 L 113.628906 273.429688 L 114.273438 273.207031 L 114.921875 273 L 115.574219 272.800781 L 116.230469 272.613281 L 116.886719 272.4375 L 117.550781 272.273438 L 118.214844 272.121094 L 118.882812 271.980469 L 119.550781 271.851562 L 120.222656 271.734375 L 120.894531 271.628906 L 121.570312 271.539062 L 122.25 271.457031 L 122.925781 271.386719 L 123.605469 271.328125 L 124.285156 271.28125 L 124.96875 271.25 L 125.648438 271.226562 L 126.332031 271.214844 L 127.011719 271.21875 L 127.695312 271.230469 L 128.375 271.257812 L 129.054688 271.296875 L 129.734375 271.34375 L 130.414062 271.40625 L 131.09375 271.480469 L 131.769531 271.566406 L 132.445312 271.660156 L 133.117188 271.769531 L 133.789062 271.890625 L 134.457031 272.023438 L 135.125 272.167969 L 135.789062 272.324219 L 136.449219 272.492188 L 137.105469 272.671875 L 137.761719 272.859375 L 138.414062 273.0625 L 139.058594 273.277344 L 139.703125 273.5 L 140.34375 273.734375 L 140.980469 273.984375 L 141.609375 274.242188 L 142.238281 274.511719 L 142.859375 274.789062 L 143.476562 275.082031 L 144.085938 275.382812 L 144.691406 275.695312 L 145.292969 276.015625 L 145.886719 276.351562 L 146.476562 276.695312 L 147.058594 277.046875 L 147.636719 277.414062 L 148.207031 277.785156 L 148.769531 278.171875 L 149.324219 278.566406 L 149.875 278.96875 L 150.417969 279.382812 L 150.953125 279.804688 L 151.480469 280.234375 L 152 280.675781 L 152.511719 281.128906 L 153.015625 281.585938 L 153.511719 282.054688 L 154 282.53125 L 154.480469 283.015625 L 154.949219 283.507812 L 155.414062 284.011719 L 155.867188 284.519531 L 156.308594 285.035156 L 156.746094 285.5625 L 157.171875 286.09375 L 157.585938 286.632812 L 157.992188 287.179688 L 158.390625 287.734375 L 158.777344 288.296875 L 159.15625 288.863281 L 159.523438 289.4375 L 159.882812 290.019531 L 160.230469 290.605469 L 160.566406 291.199219 L 160.890625 291.796875 L 161.207031 292.402344 L 161.511719 293.011719 L 161.808594 293.625 L 162.089844 294.246094 L 162.363281 294.871094 L 162.625 295.5 L 162.878906 296.132812 L 163.117188 296.773438 L 163.34375 297.414062 L 163.5625 298.0625 L 163.769531 298.710938 L 163.960938 299.363281 L 164.144531 300.019531 L 164.316406 300.679688 L 164.476562 301.34375 L 164.625 302.007812 L 164.761719 302.675781 L 164.886719 303.347656 L 165 304.019531 L 165.101562 304.695312 L 165.1875 305.371094 L 165.265625 306.046875 L 165.332031 306.726562 L 165.386719 307.40625 L 165.429688 308.085938 L 165.457031 308.769531 L 165.476562 309.449219 L 165.480469 310.132812 Z M 218.132812 310.132812 "/>
<path fill-rule="nonzero" fill="rgb(21.960784%, 59.607846%, 14.901961%)" fill-opacity="1" d="M 48.992188 261.480469 L 48.148438 262.855469 L 47.328125 264.242188 L 46.53125 265.644531 L 45.761719 267.0625 L 45.015625 268.488281 L 44.296875 269.933594 L 43.601562 271.386719 L 42.929688 272.851562 L 42.289062 274.332031 L 41.671875 275.820312 L 41.078125 277.320312 L 40.515625 278.832031 L 39.976562 280.351562 L 39.46875 281.878906 L 38.984375 283.417969 L 38.527344 284.960938 L 38.097656 286.515625 L 37.695312 288.078125 L 37.320312 289.644531 L 36.972656 291.21875 L 36.65625 292.800781 L 36.363281 294.386719 L 36.101562 295.976562 L 35.863281 297.570312 L 35.65625 299.167969 L 35.480469 300.769531 L 35.328125 302.375 L 35.207031 303.984375 L 35.113281 305.59375 L 35.046875 307.203125 L 35.007812 308.816406 L 35 310.425781 L 35.019531 312.039062 L 35.066406 313.648438 L 35.144531 315.261719 L 35.246094 316.867188 L 35.378906 318.476562 L 35.542969 320.078125 L 35.730469 321.679688 L 35.949219 323.277344 L 36.195312 324.871094 L 36.46875 326.457031 L 36.769531 328.042969 L 37.097656 329.621094 L 37.453125 331.191406 L 37.839844 332.757812 L 38.25 334.316406 L 38.691406 335.867188 L 39.15625 337.410156 L 39.652344 338.945312 L 40.171875 340.46875 L 40.71875 341.988281 L 41.292969 343.492188 L 41.894531 344.988281 L 42.519531 346.472656 L 43.171875 347.949219 L 43.851562 349.410156 L 44.554688 350.859375 L 45.285156 352.296875 L 46.042969 353.722656 L 46.820312 355.132812 L 47.625 356.53125 L 48.453125 357.910156 L 49.308594 359.28125 L 50.183594 360.632812 L 51.085938 361.96875 L 52.011719 363.289062 L 52.957031 364.59375 L 53.925781 365.882812 L 54.921875 367.152344 L 55.933594 368.402344 L 56.972656 369.636719 L 58.03125 370.855469 L 59.109375 372.050781 L 60.210938 373.230469 L 61.332031 374.386719 L 62.472656 375.527344 L 63.632812 376.644531 L 64.8125 377.742188 L 66.015625 378.816406 L 67.234375 379.875 L 68.46875 380.90625 L 69.726562 381.917969 L 102.410156 340.640625 L 101.875 340.210938 L 101.347656 339.773438 L 100.832031 339.324219 L 100.320312 338.867188 L 99.820312 338.398438 L 99.328125 337.921875 L 98.839844 337.441406 L 98.363281 336.949219 L 97.898438 336.445312 L 97.4375 335.9375 L 96.988281 335.421875 L 96.546875 334.898438 L 96.117188 334.363281 L 95.695312 333.824219 L 95.28125 333.277344 L 94.878906 332.722656 L 94.488281 332.160156 L 94.105469 331.59375 L 93.730469 331.019531 L 93.367188 330.4375 L 93.015625 329.851562 L 92.675781 329.257812 L 92.34375 328.65625 L 92.023438 328.050781 L 91.710938 327.441406 L 91.414062 326.824219 L 91.125 326.203125 L 90.847656 325.578125 L 90.582031 324.945312 L 90.324219 324.308594 L 90.082031 323.667969 L 89.847656 323.023438 L 89.628906 322.375 L 89.417969 321.726562 L 89.21875 321.070312 L 89.03125 320.410156 L 88.855469 319.746094 L 88.695312 319.082031 L 88.542969 318.414062 L 88.402344 317.742188 L 88.273438 317.070312 L 88.15625 316.394531 L 88.054688 315.71875 L 87.960938 315.039062 L 87.878906 314.359375 L 87.8125 313.675781 L 87.753906 312.996094 L 87.710938 312.3125 L 87.679688 311.625 L 87.660156 310.941406 L 87.652344 310.257812 L 87.652344 309.570312 L 87.671875 308.886719 L 87.699219 308.203125 L 87.738281 307.519531 L 87.789062 306.835938 L 87.855469 306.152344 L 87.929688 305.472656 L 88.019531 304.792969 L 88.117188 304.113281 L 88.230469 303.4375 L 88.355469 302.765625 L 88.488281 302.09375 L 88.636719 301.425781 L 88.796875 300.757812 L 88.964844 300.09375 L 89.148438 299.433594 L 89.34375 298.777344 L 89.550781 298.125 L 89.765625 297.472656 L 89.996094 296.828125 L 90.234375 296.1875 L 90.484375 295.550781 L 90.746094 294.917969 L 91.019531 294.289062 L 91.304688 293.664062 L 91.601562 293.046875 L 91.90625 292.433594 L 92.222656 291.828125 L 92.550781 291.222656 L 92.890625 290.628906 L 93.238281 290.039062 L 93.597656 289.457031 Z M 48.992188 261.480469 "/>
<path fill-rule="nonzero" fill="rgb(79.215688%, 23.529412%, 20%)" fill-opacity="1" d="M 80.78125 389.429688 L 82.179688 390.222656 L 83.59375 390.988281 L 85.019531 391.730469 L 86.457031 392.445312 L 87.910156 393.136719 L 89.371094 393.804688 L 90.847656 394.441406 L 92.332031 395.058594 L 93.828125 395.644531 L 95.332031 396.207031 L 96.847656 396.742188 L 98.375 397.25 L 99.90625 397.730469 L 101.449219 398.183594 L 102.996094 398.613281 L 104.554688 399.011719 L 106.117188 399.386719 L 107.6875 399.730469 L 109.261719 400.046875 L 110.84375 400.335938 L 112.429688 400.597656 L 114.019531 400.832031 L 115.613281 401.039062 L 117.210938 401.21875 L 118.808594 401.367188 L 120.414062 401.492188 L 122.015625 401.585938 L 123.625 401.648438 L 125.230469 401.6875 L 126.835938 401.695312 L 128.445312 401.679688 L 130.050781 401.632812 L 131.65625 401.554688 L 133.261719 401.453125 L 134.863281 401.320312 L 136.460938 401.160156 L 138.058594 400.972656 L 139.648438 400.757812 L 141.238281 400.515625 L 142.820312 400.242188 L 144.402344 399.945312 L 145.976562 399.617188 L 147.542969 399.261719 L 149.105469 398.878906 L 150.65625 398.472656 L 152.203125 398.035156 L 153.742188 397.570312 L 155.273438 397.082031 L 156.796875 396.5625 L 158.308594 396.019531 L 159.808594 395.449219 L 161.300781 394.851562 L 162.785156 394.230469 L 164.253906 393.582031 L 165.714844 392.90625 L 167.160156 392.207031 L 168.59375 391.480469 L 170.015625 390.730469 L 171.425781 389.957031 L 172.816406 389.15625 L 174.199219 388.332031 L 175.5625 387.484375 L 176.914062 386.613281 L 178.246094 385.71875 L 179.566406 384.800781 L 180.867188 383.859375 L 182.15625 382.894531 L 183.421875 381.90625 L 184.675781 380.898438 L 185.90625 379.867188 L 187.121094 378.8125 L 188.316406 377.742188 L 189.496094 376.648438 L 190.652344 375.53125 L 191.789062 374.398438 L 192.910156 373.242188 L 194.007812 372.066406 L 195.082031 370.875 L 196.136719 369.664062 L 197.171875 368.433594 L 198.183594 367.183594 L 199.175781 365.917969 L 200.144531 364.636719 L 201.089844 363.335938 L 202.011719 362.019531 L 202.910156 360.6875 L 203.785156 359.339844 L 204.636719 357.976562 L 205.464844 356.601562 L 206.269531 355.207031 L 207.046875 353.800781 L 207.800781 352.382812 L 208.53125 350.949219 L 209.234375 349.503906 L 209.914062 348.046875 L 210.566406 346.578125 L 211.191406 345.101562 L 211.792969 343.609375 L 212.367188 342.109375 L 212.914062 340.597656 L 213.4375 339.078125 L 213.929688 337.546875 L 214.398438 336.011719 L 214.839844 334.464844 L 215.253906 332.910156 L 215.640625 331.351562 L 216 329.785156 L 216.328125 328.210938 L 216.632812 326.632812 L 216.910156 325.050781 L 217.15625 323.464844 L 165.066406 315.796875 L 164.960938 316.472656 L 164.84375 317.144531 L 164.714844 317.816406 L 164.574219 318.484375 L 164.421875 319.148438 L 164.257812 319.8125 L 164.082031 320.472656 L 163.894531 321.128906 L 163.695312 321.785156 L 163.484375 322.433594 L 163.265625 323.078125 L 163.03125 323.722656 L 162.789062 324.359375 L 162.53125 324.992188 L 162.265625 325.621094 L 161.988281 326.246094 L 161.699219 326.867188 L 161.402344 327.480469 L 161.089844 328.089844 L 160.769531 328.691406 L 160.441406 329.289062 L 160.097656 329.878906 L 159.746094 330.464844 L 159.382812 331.046875 L 159.011719 331.617188 L 158.628906 332.183594 L 158.238281 332.742188 L 157.835938 333.296875 L 157.425781 333.839844 L 157.003906 334.378906 L 156.574219 334.910156 L 156.132812 335.433594 L 155.6875 335.945312 L 155.226562 336.453125 L 154.761719 336.953125 L 154.285156 337.445312 L 153.804688 337.925781 L 153.3125 338.398438 L 152.808594 338.863281 L 152.300781 339.320312 L 151.785156 339.769531 L 151.261719 340.207031 L 150.730469 340.636719 L 150.191406 341.054688 L 149.644531 341.464844 L 149.089844 341.863281 L 148.53125 342.253906 L 147.964844 342.636719 L 147.390625 343.007812 L 146.808594 343.367188 L 146.222656 343.71875 L 145.628906 344.058594 L 145.03125 344.386719 L 144.429688 344.707031 L 143.820312 345.011719 L 143.203125 345.3125 L 142.582031 345.597656 L 141.957031 345.875 L 141.328125 346.136719 L 140.695312 346.390625 L 140.054688 346.632812 L 139.414062 346.863281 L 138.765625 347.085938 L 138.117188 347.292969 L 137.460938 347.488281 L 136.804688 347.675781 L 136.144531 347.847656 L 135.480469 348.011719 L 134.816406 348.164062 L 134.144531 348.300781 L 133.476562 348.429688 L 132.800781 348.542969 L 132.125 348.648438 L 131.449219 348.738281 L 130.769531 348.820312 L 130.089844 348.886719 L 129.410156 348.941406 L 128.730469 348.988281 L 128.046875 349.019531 L 127.363281 349.039062 L 126.679688 349.046875 L 126 349.042969 L 125.316406 349.027344 L 124.632812 349 L 123.949219 348.957031 L 123.269531 348.90625 L 122.589844 348.84375 L 121.910156 348.765625 L 121.234375 348.679688 L 120.558594 348.582031 L 119.882812 348.46875 L 119.210938 348.34375 L 118.542969 348.210938 L 117.875 348.0625 L 117.210938 347.90625 L 116.550781 347.734375 L 115.890625 347.554688 L 115.234375 347.359375 L 114.585938 347.15625 L 113.9375 346.941406 L 113.292969 346.714844 L 112.652344 346.472656 L 112.015625 346.222656 L 111.386719 345.964844 L 110.757812 345.691406 L 110.136719 345.410156 L 109.519531 345.113281 L 108.910156 344.808594 L 108.304688 344.496094 L 107.703125 344.167969 L 107.109375 343.832031 Z M 80.78125 389.429688 "/>
</svg>
