<?xml version="1.0" encoding="UTF-8"?>
<svg xmlns="http://www.w3.org/2000/svg" xmlns:xlink="http://www.w3.org/1999/xlink" width="600" height="450" viewBox="0 0 600 450">
<path fill-rule="nonzero" fill="rgb(21.960784%, 59.607846%, 14.901961%)" fill-opacity="1" stroke-width="6" stroke-linecap="butt" stroke-linejoin="miter" stroke="rgb(100%, 100%, 100%)" stroke-opacity="1" stroke-miterlimit="2" d="M 380.355469 183.765625 L 381.117188 182.339844 L 381.855469 180.902344 L 382.566406 179.453125 L 383.253906 177.988281 L 383.914062 176.511719 L 384.546875 175.027344 L 385.152344 173.527344 L 385.734375 172.019531 L 386.289062 170.503906 L 386.816406 168.976562 L 387.316406 167.4375 L 387.789062 165.894531 L 388.234375 164.339844 L 388.652344 162.777344 L 389.042969 161.210938 L 389.40625 159.636719 L 389.742188 158.054688 L 390.046875 156.46875 L 390.328125 154.875 L 390.578125 153.28125 L 390.800781 151.679688 L 390.996094 150.074219 L 391.160156 148.46875 L 391.300781 146.855469 L 391.40625 145.246094 L 391.488281 143.628906 L 391.539062 142.015625 L 391.566406 140.398438 L 391.558594 138.785156 L 391.527344 137.167969 L 391.464844 135.554688 L 391.375 133.9375 L 391.253906 132.328125 L 391.109375 130.71875 L 390.933594 129.113281 L 390.726562 127.507812 L 390.496094 125.910156 L 390.234375 124.316406 L 389.945312 122.722656 L 389.628906 121.140625 L 389.285156 119.5625 L 388.914062 117.988281 L 388.515625 116.421875 L 388.085938 114.863281 L 387.632812 113.3125 L 387.148438 111.769531 L 386.640625 110.238281 L 386.101562 108.710938 L 385.539062 107.199219 L 384.949219 105.691406 L 384.332031 104.199219 L 383.691406 102.714844 L 383.023438 101.246094 L 382.328125 99.785156 L 381.609375 98.339844 L 380.863281 96.90625 L 380.089844 95.484375 L 379.296875 94.078125 L 378.476562 92.6875 L 377.628906 91.308594 L 376.761719 89.945312 L 375.867188 88.597656 L 374.953125 87.269531 L 374.011719 85.953125 L 373.046875 84.65625 L 372.0625 83.375 L 371.054688 82.113281 L 370.023438 80.867188 L 368.972656 79.640625 L 367.898438 78.433594 L 366.804688 77.242188 L 365.6875 76.074219 L 364.550781 74.925781 L 363.394531 73.796875 L 362.21875 72.6875 L 361.023438 71.601562 L 359.808594 70.535156 L 358.578125 69.488281 L 357.324219 68.464844 L 356.058594 67.464844 L 354.769531 66.488281 L 353.46875 65.53125 L 352.148438 64.601562 L 350.808594 63.691406 L 349.457031 62.804688 L 348.089844 61.945312 L 346.707031 61.109375 L 345.308594 60.296875 L 343.898438 59.511719 L 318.65625 105.714844 L 319.257812 106.050781 L 319.851562 106.394531 L 320.4375 106.75 L 321.019531 107.117188 L 321.59375 107.492188 L 322.164062 107.878906 L 322.722656 108.273438 L 323.277344 108.679688 L 323.824219 109.097656 L 324.363281 109.523438 L 324.894531 109.957031 L 325.417969 110.398438 L 325.933594 110.855469 L 326.441406 111.316406 L 326.941406 111.785156 L 327.433594 112.265625 L 327.917969 112.753906 L 328.390625 113.253906 L 328.855469 113.757812 L 329.3125 114.269531 L 329.761719 114.792969 L 330.199219 115.320312 L 330.625 115.859375 L 331.046875 116.402344 L 331.453125 116.953125 L 331.855469 117.511719 L 332.242188 118.078125 L 332.625 118.652344 L 332.992188 119.230469 L 333.351562 119.816406 L 333.699219 120.40625 L 334.039062 121.003906 L 334.367188 121.609375 L 334.683594 122.21875 L 334.988281 122.832031 L 335.285156 123.453125 L 335.570312 124.078125 L 335.839844 124.707031 L 336.105469 125.34375 L 336.355469 125.984375 L 336.59375 126.625 L 336.820312 127.273438 L 337.039062 127.925781 L 337.242188 128.582031 L 337.4375 129.242188 L 337.617188 129.902344 L 337.789062 130.570312 L 337.945312 131.238281 L 338.09375 131.90625 L 338.226562 132.582031 L 338.351562 133.257812 L 338.460938 133.933594 L 338.558594 134.613281 L 338.644531 135.296875 L 338.71875 135.980469 L 338.785156 136.664062 L 338.832031 137.347656 L 338.871094 138.035156 L 338.898438 138.71875 L 338.914062 139.40625 L 338.914062 140.09375 L 338.90625 140.78125 L 338.882812 141.464844 L 338.847656 142.152344 L 338.800781 142.835938 L 338.742188 143.523438 L 338.671875 144.207031 L 338.589844 144.886719 L 338.496094 145.566406 L 338.390625 146.246094 L 338.269531 146.921875 L 338.140625 147.597656 L 337.996094 148.269531 L 337.84375 148.9375 L 337.675781 149.605469 L 337.5 150.269531 L 337.308594 150.929688 L 337.109375 151.585938 L 336.898438 152.238281 L 336.671875 152.886719 L 336.4375 153.53125 L 336.191406 154.171875 L 335.933594 154.808594 L 335.664062 155.441406 L 335.382812 156.070312 L 335.089844 156.691406 L 334.789062 157.308594 L 334.476562 157.917969 L 334.152344 158.523438 Z M 380.355469 183.765625 "/>
<path fill-rule="nonzero" fill="rgb(58.823532%, 34.509805%, 69.803923%)" fill-opacity="1" stroke-width="6" stroke-linecap="butt" stroke-linejoin="miter" stroke="rgb(100%, 100%, 100%)" stroke-opacity="1" stroke-miterlimit="2" d="M 343.898438 59.511719 L 342.488281 58.757812 L 341.066406 58.027344 L 339.632812 57.324219 L 338.1875 56.644531 L 336.726562 55.988281 L 335.257812 55.363281 L 333.777344 54.757812 L 332.289062 54.183594 L 330.789062 53.632812 L 329.277344 53.109375 L 327.757812 52.609375 L 326.234375 52.140625 L 324.699219 51.695312 L 323.15625 51.277344 L 321.605469 50.886719 L 320.050781 50.523438 L 318.488281 50.1875 L 316.917969 49.878906 L 315.34375 49.59375 L 313.769531 49.339844 L 312.1875 49.113281 L 310.601562 48.917969 L 309.011719 48.746094 L 307.417969 48.601562 L 305.824219 48.484375 L 304.230469 48.398438 L 302.632812 48.339844 L 301.035156 48.304688 L 299.4375 48.300781 L 297.839844 48.324219 L 296.242188 48.378906 L 294.644531 48.457031 L 293.050781 48.566406 L 291.457031 48.699219 L 289.867188 48.863281 L 288.28125 49.054688 L 286.699219 49.273438 L 285.121094 49.519531 L 283.546875 49.792969 L 281.976562 50.09375 L 280.410156 50.421875 L 278.855469 50.777344 L 277.300781 51.160156 L 275.757812 51.566406 L 274.21875 52.003906 L 272.691406 52.46875 L 271.167969 52.957031 L 269.65625 53.472656 L 268.152344 54.015625 L 266.660156 54.585938 L 265.175781 55.179688 L 263.703125 55.800781 L 262.242188 56.449219 L 260.792969 57.117188 L 259.355469 57.816406 L 257.929688 58.539062 L 256.515625 59.285156 L 255.117188 60.054688 L 253.730469 60.851562 L 252.359375 61.671875 L 251 62.515625 L 249.65625 63.378906 L 248.332031 64.269531 L 247.019531 65.183594 L 245.722656 66.121094 L 244.445312 67.078125 L 243.183594 68.058594 L 241.9375 69.0625 L 240.710938 70.085938 L 239.503906 71.132812 L 238.3125 72.199219 L 237.140625 73.285156 L 235.988281 74.390625 L 234.855469 75.519531 L 233.742188 76.664062 L 232.648438 77.832031 L 231.578125 79.015625 L 230.527344 80.21875 L 229.496094 81.441406 L 228.484375 82.679688 L 227.5 83.9375 L 226.535156 85.210938 L 225.589844 86.5 L 224.671875 87.808594 L 223.773438 89.132812 L 222.902344 90.46875 L 222.050781 91.824219 L 221.222656 93.191406 L 220.421875 94.570312 L 219.640625 95.96875 L 218.886719 97.375 L 218.160156 98.800781 L 217.453125 100.234375 L 216.777344 101.679688 L 216.121094 103.136719 L 215.492188 104.609375 L 214.890625 106.089844 L 214.316406 107.578125 L 213.765625 109.078125 L 213.238281 110.589844 L 212.742188 112.105469 L 212.269531 113.632812 L 211.828125 115.167969 L 211.410156 116.710938 L 211.019531 118.261719 L 210.65625 119.816406 L 210.320312 121.378906 L 210.011719 122.949219 L 209.726562 124.519531 L 209.472656 126.097656 L 209.246094 127.679688 L 209.046875 129.265625 L 208.878906 130.855469 L 208.734375 132.445312 L 208.617188 134.042969 L 208.53125 135.636719 L 208.472656 137.234375 L 208.4375 138.832031 L 208.433594 140.429688 L 208.457031 142.027344 L 261.09375 140.785156 L 261.085938 140.105469 L 261.085938 139.425781 L 261.101562 138.746094 L 261.125 138.070312 L 261.164062 137.390625 L 261.210938 136.714844 L 261.273438 136.039062 L 261.34375 135.363281 L 261.429688 134.6875 L 261.527344 134.015625 L 261.632812 133.34375 L 261.753906 132.675781 L 261.886719 132.011719 L 262.027344 131.347656 L 262.183594 130.683594 L 262.347656 130.027344 L 262.527344 129.371094 L 262.714844 128.71875 L 262.914062 128.070312 L 263.125 127.421875 L 263.351562 126.78125 L 263.582031 126.144531 L 263.828125 125.511719 L 264.085938 124.882812 L 264.351562 124.257812 L 264.628906 123.636719 L 264.917969 123.023438 L 265.21875 122.414062 L 265.527344 121.808594 L 265.847656 121.210938 L 266.179688 120.617188 L 266.519531 120.03125 L 266.871094 119.449219 L 267.234375 118.871094 L 267.605469 118.304688 L 267.984375 117.742188 L 268.375 117.1875 L 268.777344 116.636719 L 269.1875 116.097656 L 269.605469 115.5625 L 270.035156 115.035156 L 270.472656 114.515625 L 270.921875 114.003906 L 271.375 113.5 L 271.839844 113.007812 L 272.3125 112.519531 L 272.796875 112.039062 L 273.285156 111.570312 L 273.78125 111.109375 L 274.289062 110.65625 L 274.800781 110.210938 L 275.324219 109.773438 L 275.851562 109.347656 L 276.390625 108.933594 L 276.933594 108.523438 L 277.484375 108.125 L 278.039062 107.738281 L 278.605469 107.359375 L 279.175781 106.992188 L 279.75 106.632812 L 280.335938 106.285156 L 280.925781 105.945312 L 281.519531 105.621094 L 282.121094 105.300781 L 282.726562 104.996094 L 283.335938 104.699219 L 283.953125 104.414062 L 284.574219 104.140625 L 285.199219 103.875 L 285.832031 103.621094 L 286.464844 103.378906 L 287.105469 103.148438 L 287.746094 102.929688 L 288.394531 102.722656 L 289.042969 102.527344 L 289.695312 102.339844 L 290.351562 102.164062 L 291.011719 102.003906 L 291.675781 101.851562 L 292.339844 101.710938 L 293.007812 101.585938 L 293.675781 101.46875 L 294.347656 101.363281 L 295.019531 101.269531 L 295.695312 101.191406 L 296.371094 101.121094 L 297.046875 101.0625 L 297.722656 101.019531 L 298.402344 100.984375 L 299.082031 100.960938 L 299.761719 100.953125 L 300.441406 100.953125 L 301.117188 100.96875 L 301.796875 100.992188 L 302.476562 101.03125 L 303.152344 101.078125 L 303.828125 101.140625 L 304.503906 101.214844 L 305.179688 101.296875 L 305.851562 101.394531 L 306.523438 101.5 L 307.191406 101.621094 L 307.855469 101.753906 L 308.519531 101.894531 L 309.183594 102.050781 L 309.839844 102.214844 L 310.496094 102.394531 L 311.148438 102.582031 L 311.796875 102.78125 L 312.441406 102.996094 L 313.085938 103.21875 L 313.722656 103.449219 L 314.355469 103.695312 L 314.984375 103.953125 L 315.609375 104.21875 L 316.230469 104.496094 L 316.84375 104.785156 L 317.453125 105.085938 L 318.058594 105.394531 L 318.65625 105.714844 Z M 343.898438 59.511719 "/>
<path fill-rule="nonzero" fill="rgb(79.215688%, 23.529412%, 20%)" fill-opacity="1" stroke-width="6" stroke-linecap="butt" stroke-linejoin="miter" stroke="rgb(100%, 100%, 100%)" stroke-opacity="1" stroke-miterlimit="2" d="M 208.457031 142.027344 L 208.511719 143.636719 L 208.589844 145.242188 L 208.699219 146.847656 L 208.835938 148.449219 L 209 150.050781 L 209.195312 151.648438 L 209.414062 153.242188 L 209.664062 154.832031 L 209.941406 156.417969 L 210.246094 157.996094 L 210.578125 159.570312 L 210.9375 161.136719 L 211.324219 162.699219 L 211.742188 164.253906 L 212.183594 165.800781 L 212.652344 167.339844 L 213.148438 168.871094 L 213.671875 170.390625 L 214.21875 171.902344 L 214.796875 173.40625 L 215.398438 174.898438 L 216.027344 176.378906 L 216.683594 177.847656 L 217.363281 179.304688 L 218.066406 180.753906 L 218.796875 182.183594 L 219.554688 183.605469 L 220.335938 185.011719 L 221.140625 186.40625 L 221.972656 187.785156 L 222.824219 189.148438 L 223.703125 190.496094 L 224.605469 191.828125 L 225.527344 193.144531 L 226.476562 194.445312 L 227.445312 195.726562 L 228.4375 196.992188 L 229.453125 198.242188 L 230.488281 199.472656 L 231.546875 200.683594 L 232.628906 201.878906 L 233.726562 203.050781 L 234.847656 204.207031 L 235.988281 205.34375 L 237.148438 206.457031 L 238.328125 207.550781 L 239.527344 208.625 L 240.742188 209.675781 L 241.980469 210.707031 L 243.234375 211.714844 L 244.503906 212.699219 L 245.792969 213.664062 L 247.097656 214.605469 L 248.417969 215.523438 L 249.757812 216.417969 L 251.109375 217.289062 L 252.476562 218.136719 L 253.859375 218.957031 L 255.253906 219.757812 L 256.667969 220.53125 L 258.089844 221.28125 L 259.527344 222.003906 L 260.976562 222.703125 L 262.4375 223.375 L 263.910156 224.023438 L 265.394531 224.644531 L 266.890625 225.238281 L 268.394531 225.804688 L 269.910156 226.347656 L 271.433594 226.863281 L 272.964844 227.351562 L 274.507812 227.8125 L 276.058594 228.246094 L 277.613281 228.65625 L 279.175781 229.035156 L 280.746094 229.386719 L 282.324219 229.710938 L 283.902344 230.007812 L 285.488281 230.277344 L 287.082031 230.515625 L 288.675781 230.730469 L 290.273438 230.914062 L 291.875 231.074219 L 293.476562 231.199219 L 295.082031 231.300781 L 296.691406 231.375 L 298.300781 231.417969 L 299.90625 231.433594 L 301.515625 231.421875 L 303.125 231.378906 L 304.734375 231.3125 L 306.339844 231.214844 L 307.941406 231.089844 L 309.542969 230.933594 L 311.140625 230.753906 L 312.738281 230.542969 L 314.328125 230.304688 L 315.914062 230.039062 L 317.496094 229.746094 L 319.074219 229.425781 L 320.644531 229.074219 L 322.207031 228.699219 L 323.765625 228.296875 L 325.316406 227.863281 L 326.859375 227.40625 L 328.390625 226.921875 L 329.917969 226.410156 L 331.433594 225.871094 L 332.9375 225.304688 L 334.433594 224.710938 L 335.921875 224.09375 L 337.394531 223.449219 L 338.855469 222.78125 L 340.308594 222.085938 L 341.746094 221.363281 L 343.171875 220.617188 L 344.582031 219.847656 L 345.980469 219.050781 L 347.367188 218.230469 L 348.734375 217.386719 L 350.089844 216.519531 L 351.429688 215.625 L 352.753906 214.710938 L 354.058594 213.773438 L 355.347656 212.8125 L 356.621094 211.828125 L 357.878906 210.820312 L 359.117188 209.792969 L 360.335938 208.746094 L 361.535156 207.671875 L 362.71875 206.582031 L 363.878906 205.46875 L 365.023438 204.335938 L 366.144531 203.183594 L 367.246094 202.011719 L 368.328125 200.820312 L 369.390625 199.613281 L 370.429688 198.382812 L 371.445312 197.136719 L 372.441406 195.871094 L 373.414062 194.589844 L 374.363281 193.292969 L 375.292969 191.976562 L 376.195312 190.648438 L 377.074219 189.300781 L 377.933594 187.9375 L 378.765625 186.5625 L 379.574219 185.171875 L 380.355469 183.765625 L 334.152344 158.523438 L 333.816406 159.121094 L 333.476562 159.710938 L 333.121094 160.296875 L 332.757812 160.875 L 332.382812 161.449219 L 332 162.015625 L 331.605469 162.574219 L 331.199219 163.125 L 330.789062 163.667969 L 330.363281 164.207031 L 329.933594 164.738281 L 329.492188 165.257812 L 329.039062 165.773438 L 328.582031 166.277344 L 328.113281 166.777344 L 327.632812 167.265625 L 327.148438 167.75 L 326.65625 168.222656 L 326.152344 168.683594 L 325.640625 169.140625 L 325.125 169.585938 L 324.597656 170.023438 L 324.0625 170.449219 L 323.523438 170.867188 L 322.976562 171.277344 L 322.417969 171.675781 L 321.855469 172.066406 L 321.289062 172.445312 L 320.710938 172.8125 L 320.128906 173.171875 L 319.542969 173.519531 L 318.949219 173.859375 L 318.347656 174.1875 L 317.742188 174.503906 L 317.128906 174.808594 L 316.515625 175.105469 L 315.890625 175.390625 L 315.265625 175.664062 L 314.632812 175.925781 L 314 176.175781 L 313.359375 176.417969 L 312.714844 176.648438 L 312.066406 176.863281 L 311.414062 177.070312 L 310.757812 177.265625 L 310.101562 177.449219 L 309.4375 177.621094 L 308.773438 177.78125 L 308.105469 177.929688 L 307.4375 178.066406 L 306.765625 178.191406 L 306.089844 178.304688 L 305.414062 178.40625 L 304.734375 178.492188 L 304.054688 178.570312 L 303.375 178.636719 L 302.695312 178.6875 L 302.011719 178.730469 L 301.328125 178.761719 L 300.644531 178.777344 L 299.960938 178.78125 L 299.277344 178.777344 L 298.59375 178.757812 L 297.910156 178.726562 L 297.226562 178.683594 L 296.546875 178.628906 L 295.867188 178.5625 L 295.1875 178.484375 L 294.507812 178.394531 L 293.832031 178.292969 L 293.160156 178.175781 L 292.488281 178.050781 L 291.816406 177.914062 L 291.148438 177.761719 L 290.484375 177.601562 L 289.824219 177.429688 L 289.164062 177.246094 L 288.511719 177.046875 L 287.859375 176.839844 L 287.210938 176.621094 L 286.566406 176.390625 L 285.929688 176.148438 L 285.292969 175.898438 L 284.660156 175.632812 L 284.035156 175.359375 L 283.414062 175.070312 L 282.796875 174.773438 L 282.1875 174.46875 L 281.582031 174.148438 L 280.984375 173.820312 L 280.390625 173.480469 L 279.800781 173.132812 L 279.222656 172.769531 L 278.644531 172.402344 L 278.078125 172.019531 L 277.515625 171.628906 L 276.960938 171.230469 L 276.414062 170.820312 L 275.875 170.402344 L 275.339844 169.972656 L 274.816406 169.535156 L 274.296875 169.089844 L 273.789062 168.632812 L 273.289062 168.167969 L 272.792969 167.695312 L 272.308594 167.210938 L 271.832031 166.722656 L 271.367188 166.222656 L 270.90625 165.714844 L 270.457031 165.199219 L 270.019531 164.675781 L 269.585938 164.144531 L 269.164062 163.609375 L 268.753906 163.0625 L 268.347656 162.511719 L 267.957031 161.949219 L 267.574219 161.382812 L 267.199219 160.8125 L 266.835938 160.230469 L 266.484375 159.644531 L 266.140625 159.054688 L 265.8125 158.457031 L 265.488281 157.851562 L 265.179688 157.242188 L 264.878906 156.628906 L 264.589844 156.007812 L 264.3125 155.382812 L 264.042969 154.753906 L 263.789062 154.121094 L 263.542969 153.484375 L 263.308594 152.839844 L 263.085938 152.195312 L 262.875 151.542969 L 262.675781 150.890625 L 262.488281 150.230469 L 262.3125 149.570312 L 262.148438 148.90625 L 261.996094 148.242188 L 261.855469 147.570312 L 261.726562 146.902344 L 261.605469 146.226562 L 261.5 145.550781 L 261.40625 144.875 L 261.324219 144.195312 L 261.253906 143.515625 L 261.195312 142.832031 L 261.152344 142.152344 L 261.117188 141.46875 L 261.09375 140.785156 Z M 208.457031 142.027344 "/>
<path fill-rule="nonzero" fill="rgb(21.960784%, 59.607846%, 14.901961%)" fill-opacity="1" stroke-width="6" stroke-linecap="butt" stroke-linejoin="miter" stroke="rgb(100%, 100%, 100%)" stroke-opacity="1" stroke-miterlimit="2" d="M 338.582031 379.429688 L 339.808594 380.46875 L 341.054688 381.488281 L 342.316406 382.488281 L 343.597656 383.460938 L 344.894531 384.414062 L 346.207031 385.34375 L 347.539062 386.25 L 348.882812 387.132812 L 350.246094 387.992188 L 351.621094 388.828125 L 353.011719 389.636719 L 354.414062 390.421875 L 355.832031 391.183594 L 357.265625 391.921875 L 358.707031 392.632812 L 360.164062 393.316406 L 361.632812 393.976562 L 363.109375 394.609375 L 364.601562 395.21875 L 366.101562 395.800781 L 367.613281 396.355469 L 369.132812 396.882812 L 370.660156 397.382812 L 372.199219 397.859375 L 373.746094 398.304688 L 375.296875 398.726562 L 376.859375 399.121094 L 378.425781 399.484375 L 380 399.824219 L 381.578125 400.132812 L 383.164062 400.414062 L 384.753906 400.667969 L 386.34375 400.894531 L 387.941406 401.09375 L 389.542969 401.265625 L 391.144531 401.40625 L 392.75 401.519531 L 394.359375 401.605469 L 395.964844 401.664062 L 397.574219 401.695312 L 399.183594 401.695312 L 400.792969 401.667969 L 402.402344 401.613281 L 404.007812 401.527344 L 405.613281 401.414062 L 407.21875 401.277344 L 408.816406 401.105469 L 410.414062 400.910156 L 412.007812 400.6875 L 413.597656 400.433594 L 415.183594 400.152344 L 416.761719 399.84375 L 418.335938 399.507812 L 419.902344 399.144531 L 421.464844 398.753906 L 423.019531 398.335938 L 424.566406 397.890625 L 426.101562 397.417969 L 427.632812 396.917969 L 429.152344 396.390625 L 430.664062 395.835938 L 432.167969 395.257812 L 433.65625 394.652344 L 435.136719 394.019531 L 436.605469 393.363281 L 438.0625 392.679688 L 439.507812 391.96875 L 440.9375 391.234375 L 442.359375 390.476562 L 443.761719 389.691406 L 445.152344 388.882812 L 446.53125 388.046875 L 447.894531 387.191406 L 449.238281 386.308594 L 450.570312 385.40625 L 451.886719 384.476562 L 453.183594 383.527344 L 454.464844 382.554688 L 455.730469 381.558594 L 456.976562 380.539062 L 458.203125 379.5 L 459.414062 378.4375 L 460.605469 377.355469 L 461.777344 376.253906 L 462.929688 375.128906 L 464.0625 373.984375 L 465.171875 372.824219 L 466.265625 371.640625 L 467.335938 370.4375 L 468.382812 369.21875 L 469.414062 367.980469 L 470.417969 366.722656 L 471.402344 365.449219 L 472.363281 364.160156 L 473.300781 362.851562 L 474.214844 361.527344 L 475.105469 360.1875 L 475.976562 358.832031 L 476.820312 357.460938 L 477.636719 356.078125 L 478.433594 354.679688 L 479.203125 353.265625 L 479.949219 351.839844 L 480.671875 350.398438 L 481.363281 348.949219 L 482.035156 347.484375 L 482.679688 346.011719 L 483.296875 344.523438 L 483.886719 343.027344 L 484.453125 341.519531 L 484.992188 340.003906 L 485.5 338.476562 L 485.988281 336.945312 L 486.445312 335.402344 L 486.875 333.851562 L 487.277344 332.292969 L 487.652344 330.726562 L 488 329.15625 L 488.324219 327.578125 L 488.613281 325.996094 L 488.878906 324.410156 L 489.117188 322.816406 L 489.324219 321.222656 L 489.507812 319.621094 L 489.660156 318.019531 L 489.785156 316.417969 L 489.878906 314.808594 L 489.949219 313.203125 L 489.988281 311.59375 L 490 309.984375 L 437.347656 310.070312 L 437.34375 310.753906 L 437.328125 311.4375 L 437.296875 312.121094 L 437.257812 312.800781 L 437.203125 313.484375 L 437.140625 314.164062 L 437.0625 314.84375 L 436.972656 315.523438 L 436.875 316.199219 L 436.761719 316.875 L 436.636719 317.546875 L 436.5 318.21875 L 436.351562 318.882812 L 436.191406 319.550781 L 436.019531 320.210938 L 435.839844 320.871094 L 435.644531 321.527344 L 435.4375 322.179688 L 435.21875 322.828125 L 434.992188 323.472656 L 434.75 324.113281 L 434.5 324.75 L 434.238281 325.378906 L 433.964844 326.007812 L 433.679688 326.628906 L 433.382812 327.246094 L 433.078125 327.855469 L 432.761719 328.464844 L 432.433594 329.0625 L 432.09375 329.660156 L 431.746094 330.246094 L 431.386719 330.828125 L 431.019531 331.40625 L 430.640625 331.972656 L 430.253906 332.539062 L 429.851562 333.09375 L 429.445312 333.640625 L 429.027344 334.183594 L 428.597656 334.71875 L 428.164062 335.242188 L 427.71875 335.761719 L 427.261719 336.273438 L 426.796875 336.773438 L 426.324219 337.269531 L 425.84375 337.753906 L 425.355469 338.234375 L 424.855469 338.703125 L 424.351562 339.160156 L 423.835938 339.613281 L 423.3125 340.054688 L 422.785156 340.488281 L 422.246094 340.910156 L 421.703125 341.324219 L 421.152344 341.726562 L 420.59375 342.121094 L 420.027344 342.507812 L 419.453125 342.882812 L 418.875 343.246094 L 418.289062 343.601562 L 417.699219 343.945312 L 417.101562 344.277344 L 416.5 344.601562 L 415.890625 344.914062 L 415.277344 345.214844 L 414.65625 345.503906 L 414.03125 345.785156 L 413.402344 346.050781 L 412.769531 346.308594 L 412.132812 346.554688 L 411.488281 346.792969 L 410.84375 347.015625 L 410.191406 347.226562 L 409.539062 347.429688 L 408.882812 347.617188 L 408.222656 347.796875 L 407.558594 347.960938 L 406.890625 348.117188 L 406.222656 348.257812 L 405.550781 348.390625 L 404.878906 348.507812 L 404.203125 348.617188 L 403.527344 348.710938 L 402.847656 348.796875 L 402.167969 348.867188 L 401.484375 348.925781 L 400.804688 348.976562 L 400.121094 349.011719 L 399.4375 349.035156 L 398.753906 349.046875 L 398.070312 349.046875 L 397.386719 349.03125 L 396.703125 349.007812 L 396.019531 348.972656 L 395.335938 348.921875 L 394.65625 348.863281 L 393.976562 348.789062 L 393.296875 348.707031 L 392.617188 348.609375 L 391.945312 348.503906 L 391.269531 348.382812 L 390.597656 348.25 L 389.929688 348.105469 L 389.265625 347.953125 L 388.601562 347.785156 L 387.941406 347.605469 L 387.285156 347.414062 L 386.628906 347.214844 L 385.980469 347 L 385.335938 346.777344 L 384.691406 346.539062 L 384.054688 346.292969 L 383.421875 346.035156 L 382.792969 345.765625 L 382.167969 345.484375 L 381.550781 345.195312 L 380.9375 344.890625 L 380.328125 344.578125 L 379.726562 344.253906 L 379.128906 343.921875 L 378.539062 343.578125 L 377.953125 343.222656 L 377.375 342.855469 L 376.804688 342.480469 L 376.238281 342.097656 L 375.679688 341.703125 L 375.128906 341.296875 L 374.585938 340.882812 L 374.046875 340.457031 L 373.519531 340.023438 L 372.996094 339.582031 Z M 338.582031 379.429688 "/>
<path fill-rule="nonzero" fill="rgb(58.823532%, 34.509805%, 69.803923%)" fill-opacity="1" stroke-width="6" stroke-linecap="butt" stroke-linejoin="miter" stroke="rgb(100%, 100%, 100%)" stroke-opacity="1" stroke-miterlimit="2" d="M 490 309.984375 L 489.984375 308.375 L 489.9375 306.765625 L 489.863281 305.160156 L 489.761719 303.550781 L 489.632812 301.949219 L 489.476562 300.347656 L 489.289062 298.75 L 489.074219 297.152344 L 488.832031 295.5625 L 488.5625 293.976562 L 488.265625 292.394531 L 487.941406 290.816406 L 487.585938 289.25 L 487.207031 287.683594 L 486.796875 286.128906 L 486.363281 284.578125 L 485.898438 283.039062 L 485.410156 281.503906 L 484.894531 279.980469 L 484.351562 278.464844 L 483.78125 276.960938 L 483.183594 275.464844 L 482.5625 273.980469 L 481.914062 272.507812 L 481.238281 271.046875 L 480.539062 269.597656 L 479.816406 268.160156 L 479.066406 266.738281 L 478.289062 265.328125 L 477.488281 263.929688 L 476.664062 262.546875 L 475.816406 261.179688 L 474.945312 259.828125 L 474.050781 258.492188 L 473.128906 257.171875 L 472.1875 255.867188 L 471.222656 254.578125 L 470.234375 253.308594 L 469.226562 252.054688 L 468.195312 250.820312 L 467.140625 249.601562 L 466.066406 248.40625 L 464.972656 247.226562 L 463.855469 246.066406 L 462.71875 244.925781 L 461.5625 243.804688 L 460.386719 242.707031 L 459.195312 241.628906 L 457.980469 240.570312 L 456.75 239.535156 L 455.5 238.523438 L 454.230469 237.53125 L 452.945312 236.558594 L 451.644531 235.613281 L 450.328125 234.691406 L 448.992188 233.789062 L 447.644531 232.914062 L 446.28125 232.058594 L 444.902344 231.230469 L 443.507812 230.425781 L 442.097656 229.648438 L 440.679688 228.890625 L 439.242188 228.160156 L 437.796875 227.457031 L 436.335938 226.777344 L 414.542969 274.707031 L 415.164062 274.996094 L 415.777344 275.292969 L 416.386719 275.605469 L 416.992188 275.925781 L 417.589844 276.257812 L 418.183594 276.597656 L 418.769531 276.949219 L 419.347656 277.3125 L 419.921875 277.6875 L 420.488281 278.070312 L 421.046875 278.460938 L 421.601562 278.863281 L 422.148438 279.277344 L 422.6875 279.695312 L 423.21875 280.128906 L 423.742188 280.566406 L 424.257812 281.015625 L 424.765625 281.476562 L 425.265625 281.941406 L 425.753906 282.417969 L 426.238281 282.902344 L 426.710938 283.394531 L 427.175781 283.898438 L 427.632812 284.40625 L 428.082031 284.921875 L 428.519531 285.449219 L 428.949219 285.980469 L 429.367188 286.519531 L 429.777344 287.070312 L 430.179688 287.621094 L 430.570312 288.183594 L 430.949219 288.753906 L 431.320312 289.328125 L 431.683594 289.910156 L 432.03125 290.496094 L 432.371094 291.089844 L 432.703125 291.6875 L 433.019531 292.292969 L 433.328125 292.90625 L 433.625 293.519531 L 433.914062 294.140625 L 434.1875 294.769531 L 434.453125 295.398438 L 434.707031 296.035156 L 434.949219 296.671875 L 435.179688 297.316406 L 435.398438 297.964844 L 435.605469 298.617188 L 435.804688 299.269531 L 435.988281 299.929688 L 436.160156 300.589844 L 436.324219 301.257812 L 436.472656 301.921875 L 436.613281 302.59375 L 436.738281 303.265625 L 436.855469 303.9375 L 436.957031 304.617188 L 437.046875 305.292969 L 437.125 305.972656 L 437.195312 306.652344 L 437.25 307.335938 L 437.292969 308.019531 L 437.324219 308.699219 L 437.34375 309.382812 L 437.347656 310.070312 Z M 490 309.984375 "/>
<path fill-rule="nonzero" fill="rgb(79.215688%, 23.529412%, 20%)" fill-opacity="1" stroke-width="6" stroke-linecap="butt" stroke-linejoin="miter" stroke="rgb(100%, 100%, 100%)" stroke-opacity="1" stroke-miterlimit="2" d="M 436.335938 226.777344 L 434.871094 226.128906 L 433.394531 225.5 L 431.90625 224.902344 L 430.40625 224.328125 L 428.898438 223.78125 L 427.382812 223.261719 L 425.855469 222.765625 L 424.320312 222.300781 L 422.777344 221.859375 L 421.226562 221.445312 L 419.671875 221.0625 L 418.105469 220.703125 L 416.535156 220.371094 L 414.960938 220.070312 L 413.378906 219.792969 L 411.796875 219.542969 L 410.207031 219.324219 L 408.613281 219.132812 L 407.015625 218.96875 L 405.417969 218.832031 L 403.816406 218.722656 L 402.214844 218.644531 L 400.613281 218.589844 L 399.007812 218.566406 L 397.402344 218.570312 L 395.800781 218.601562 L 394.195312 218.664062 L 392.59375 218.75 L 390.996094 218.867188 L 389.398438 219.011719 L 387.800781 219.183594 L 386.210938 219.382812 L 384.621094 219.613281 L 383.039062 219.867188 L 381.457031 220.152344 L 379.886719 220.464844 L 378.316406 220.800781 L 376.753906 221.167969 L 375.199219 221.5625 L 373.652344 221.980469 L 372.109375 222.429688 L 370.578125 222.90625 L 369.054688 223.40625 L 367.539062 223.933594 L 366.035156 224.488281 L 364.539062 225.070312 L 363.054688 225.675781 L 361.578125 226.308594 L 360.117188 226.96875 L 358.664062 227.652344 L 357.226562 228.359375 L 355.800781 229.097656 L 354.386719 229.855469 L 352.984375 230.640625 L 351.601562 231.449219 L 350.230469 232.28125 L 348.871094 233.136719 L 347.53125 234.015625 L 346.207031 234.921875 L 344.894531 235.847656 L 343.601562 236.796875 L 342.324219 237.769531 L 341.066406 238.761719 L 339.824219 239.777344 L 338.601562 240.816406 L 337.394531 241.875 L 336.210938 242.957031 L 335.042969 244.054688 L 333.894531 245.175781 L 332.765625 246.316406 L 331.660156 247.476562 L 330.570312 248.65625 L 329.503906 249.855469 L 328.457031 251.074219 L 327.433594 252.308594 L 326.433594 253.558594 L 325.453125 254.832031 L 324.496094 256.117188 L 323.558594 257.421875 L 322.648438 258.742188 L 321.757812 260.078125 L 320.894531 261.429688 L 320.050781 262.792969 L 319.234375 264.175781 L 318.441406 265.570312 L 317.671875 266.976562 L 316.929688 268.398438 L 316.210938 269.832031 L 315.519531 271.28125 L 314.851562 272.738281 L 314.207031 274.210938 L 313.589844 275.691406 L 313 277.183594 L 312.4375 278.683594 L 311.898438 280.195312 L 311.386719 281.714844 L 310.902344 283.246094 L 310.445312 284.785156 L 310.015625 286.328125 L 309.613281 287.882812 L 309.234375 289.441406 L 308.886719 291.007812 L 308.566406 292.578125 L 308.269531 294.15625 L 308.003906 295.738281 L 307.765625 297.324219 L 307.554688 298.914062 L 307.375 300.507812 L 307.21875 302.105469 L 307.09375 303.707031 L 306.996094 305.308594 L 306.921875 306.910156 L 306.882812 308.515625 L 306.867188 310.117188 L 306.882812 311.722656 L 306.921875 313.328125 L 306.992188 314.929688 L 307.089844 316.53125 L 307.21875 318.128906 L 307.371094 319.726562 L 307.554688 321.320312 L 307.761719 322.910156 L 308 324.496094 L 308.265625 326.082031 L 308.558594 327.65625 L 308.882812 329.230469 L 309.230469 330.796875 L 309.605469 332.355469 L 310.007812 333.90625 L 310.4375 335.453125 L 310.894531 336.992188 L 311.378906 338.519531 L 311.890625 340.042969 L 312.425781 341.554688 L 312.992188 343.054688 L 313.582031 344.546875 L 314.195312 346.027344 L 314.839844 347.5 L 315.507812 348.957031 L 316.199219 350.40625 L 316.917969 351.839844 L 317.660156 353.261719 L 318.429688 354.671875 L 319.222656 356.066406 L 320.039062 357.445312 L 320.878906 358.8125 L 321.746094 360.164062 L 322.632812 361.5 L 323.542969 362.820312 L 324.480469 364.125 L 325.4375 365.410156 L 326.417969 366.679688 L 327.417969 367.933594 L 328.441406 369.171875 L 329.488281 370.386719 L 330.554688 371.585938 L 331.640625 372.765625 L 332.75 373.925781 L 333.875 375.066406 L 335.023438 376.1875 L 336.191406 377.289062 L 337.375 378.371094 L 338.582031 379.429688 L 372.996094 339.582031 L 372.484375 339.132812 L 371.980469 338.671875 L 371.484375 338.207031 L 370.996094 337.730469 L 370.515625 337.246094 L 370.046875 336.75 L 369.585938 336.25 L 369.132812 335.738281 L 368.6875 335.222656 L 368.253906 334.699219 L 367.828125 334.164062 L 367.410156 333.625 L 367.003906 333.078125 L 366.605469 332.523438 L 366.21875 331.960938 L 365.839844 331.394531 L 365.472656 330.820312 L 365.117188 330.238281 L 364.769531 329.652344 L 364.433594 329.058594 L 364.105469 328.460938 L 363.789062 327.859375 L 363.484375 327.246094 L 363.191406 326.632812 L 362.90625 326.011719 L 362.632812 325.386719 L 362.371094 324.757812 L 362.121094 324.125 L 361.882812 323.484375 L 361.652344 322.84375 L 361.4375 322.195312 L 361.230469 321.546875 L 361.035156 320.894531 L 360.851562 320.238281 L 360.679688 319.578125 L 360.523438 318.914062 L 360.375 318.246094 L 360.238281 317.578125 L 360.113281 316.910156 L 360 316.238281 L 359.898438 315.5625 L 359.808594 314.886719 L 359.730469 314.210938 L 359.667969 313.53125 L 359.613281 312.851562 L 359.570312 312.171875 L 359.542969 311.488281 L 359.523438 310.808594 L 359.519531 310.125 L 359.523438 309.445312 L 359.542969 308.761719 L 359.570312 308.082031 L 359.613281 307.402344 L 359.667969 306.722656 L 359.734375 306.042969 L 359.8125 305.363281 L 359.898438 304.6875 L 360 304.015625 L 360.113281 303.34375 L 360.238281 302.671875 L 360.375 302.003906 L 360.523438 301.339844 L 360.683594 300.675781 L 360.855469 300.015625 L 361.039062 299.359375 L 361.234375 298.703125 L 361.4375 298.054688 L 361.65625 297.410156 L 361.886719 296.765625 L 362.125 296.128906 L 362.375 295.492188 L 362.636719 294.863281 L 362.910156 294.238281 L 363.195312 293.621094 L 363.488281 293.003906 L 363.792969 292.394531 L 364.109375 291.789062 L 364.4375 291.191406 L 364.773438 290.601562 L 365.121094 290.011719 L 365.480469 289.433594 L 365.847656 288.859375 L 366.226562 288.289062 L 366.613281 287.730469 L 367.007812 287.175781 L 367.417969 286.628906 L 367.832031 286.089844 L 368.257812 285.554688 L 368.695312 285.03125 L 369.136719 284.515625 L 369.59375 284.003906 L 370.054688 283.503906 L 370.523438 283.011719 L 371.003906 282.527344 L 371.492188 282.050781 L 371.988281 281.582031 L 372.492188 281.121094 L 373.003906 280.671875 L 373.523438 280.230469 L 374.050781 279.800781 L 374.585938 279.378906 L 375.128906 278.964844 L 375.679688 278.5625 L 376.238281 278.167969 L 376.800781 277.78125 L 377.371094 277.410156 L 377.945312 277.042969 L 378.53125 276.691406 L 379.117188 276.347656 L 379.714844 276.015625 L 380.3125 275.691406 L 380.921875 275.378906 L 381.53125 275.078125 L 382.148438 274.785156 L 382.769531 274.507812 L 383.398438 274.238281 L 384.027344 273.980469 L 384.664062 273.734375 L 385.304688 273.496094 L 385.949219 273.273438 L 386.59375 273.058594 L 387.246094 272.859375 L 387.902344 272.667969 L 388.558594 272.488281 L 389.21875 272.320312 L 389.882812 272.167969 L 390.550781 272.023438 L 391.21875 271.890625 L 391.890625 271.769531 L 392.5625 271.660156 L 393.238281 271.5625 L 393.914062 271.480469 L 394.59375 271.40625 L 395.273438 271.34375 L 395.953125 271.292969 L 396.632812 271.257812 L 397.3125 271.230469 L 397.996094 271.21875 L 398.679688 271.214844 L 399.359375 271.226562 L 400.042969 271.25 L 400.722656 271.28125 L 401.402344 271.328125 L 402.082031 271.386719 L 402.761719 271.457031 L 403.4375 271.539062 L 404.113281 271.632812 L 404.785156 271.738281 L 405.457031 271.855469 L 406.128906 271.984375 L 406.792969 272.125 L 407.460938 272.277344 L 408.121094 272.441406 L 408.78125 272.617188 L 409.433594 272.804688 L 410.085938 273 L 410.738281 273.210938 L 411.382812 273.433594 L 412.023438 273.664062 L 412.660156 273.910156 L 413.292969 274.164062 L 413.917969 274.429688 L 414.542969 274.707031 Z M 436.335938 226.777344 "/>
<path fill-rule="nonzero" fill="rgb(58.823532%, 34.509805%, 69.803923%)" fill-opacity="1" stroke-width="6" stroke-linecap="butt" stroke-linejoin="miter" stroke="rgb(100%, 100%, 100%)" stroke-opacity="1" stroke-miterlimit="2" d="M 293.132812 310.132812 L 293.117188 308.523438 L 293.074219 306.914062 L 293.003906 305.308594 L 292.90625 303.703125 L 292.78125 302.101562 L 292.625 300.5 L 292.441406 298.902344 L 292.230469 297.308594 L 291.992188 295.71875 L 291.722656 294.132812 L 291.429688 292.550781 L 291.105469 290.976562 L 290.753906 289.40625 L 290.378906 287.84375 L 289.972656 286.285156 L 289.539062 284.738281 L 289.082031 283.195312 L 288.59375 281.664062 L 288.082031 280.140625 L 287.542969 278.625 L 286.972656 277.121094 L 286.382812 275.625 L 285.761719 274.140625 L 285.117188 272.667969 L 284.445312 271.207031 L 283.75 269.757812 L 283.027344 268.320312 L 282.28125 266.894531 L 281.511719 265.484375 L 280.714844 264.085938 L 279.890625 262.703125 L 279.046875 261.335938 L 278.179688 259.984375 L 277.285156 258.644531 L 276.371094 257.324219 L 275.429688 256.015625 L 274.46875 254.730469 L 273.484375 253.457031 L 272.480469 252.203125 L 271.449219 250.964844 L 270.402344 249.746094 L 269.328125 248.546875 L 268.238281 247.367188 L 267.125 246.207031 L 265.992188 245.066406 L 264.839844 243.945312 L 263.667969 242.84375 L 262.476562 241.761719 L 261.265625 240.703125 L 260.039062 239.664062 L 258.789062 238.648438 L 257.527344 237.65625 L 256.246094 236.683594 L 254.945312 235.734375 L 253.632812 234.808594 L 252.300781 233.90625 L 250.953125 233.027344 L 249.59375 232.171875 L 248.214844 231.339844 L 246.824219 230.53125 L 245.421875 229.75 L 244.003906 228.992188 L 242.570312 228.257812 L 241.125 227.550781 L 239.671875 226.871094 L 238.203125 226.214844 L 236.722656 225.582031 L 235.230469 224.980469 L 233.730469 224.402344 L 232.222656 223.847656 L 230.699219 223.324219 L 229.171875 222.824219 L 227.632812 222.355469 L 226.089844 221.910156 L 224.535156 221.492188 L 222.976562 221.101562 L 221.410156 220.742188 L 219.835938 220.40625 L 218.257812 220.097656 L 216.671875 219.820312 L 215.085938 219.566406 L 213.492188 219.34375 L 211.894531 219.148438 L 210.296875 218.980469 L 208.695312 218.84375 L 207.089844 218.730469 L 205.484375 218.648438 L 203.878906 218.59375 L 202.269531 218.566406 L 200.660156 218.570312 L 199.054688 218.597656 L 197.445312 218.65625 L 195.839844 218.742188 L 194.234375 218.859375 L 192.632812 219 L 191.035156 219.171875 L 189.4375 219.371094 L 187.847656 219.597656 L 186.257812 219.851562 L 184.675781 220.136719 L 183.097656 220.445312 L 181.527344 220.785156 L 179.960938 221.148438 L 178.402344 221.542969 L 176.847656 221.964844 L 175.304688 222.410156 L 173.765625 222.886719 L 172.238281 223.386719 L 170.722656 223.917969 L 169.210938 224.472656 L 167.710938 225.050781 L 166.222656 225.660156 L 164.746094 226.292969 L 163.277344 226.953125 L 161.824219 227.640625 L 160.378906 228.347656 L 158.949219 229.085938 L 157.535156 229.847656 L 156.132812 230.632812 L 154.742188 231.441406 L 153.367188 232.277344 L 152.007812 233.136719 L 150.664062 234.015625 L 149.332031 234.921875 L 148.019531 235.851562 L 146.726562 236.804688 L 145.445312 237.777344 L 144.183594 238.773438 L 142.9375 239.792969 L 141.710938 240.835938 L 140.503906 241.894531 L 139.316406 242.980469 L 138.144531 244.082031 L 136.996094 245.207031 L 135.867188 246.351562 L 134.757812 247.515625 L 133.667969 248.695312 L 132.597656 249.898438 L 131.550781 251.121094 L 130.527344 252.359375 L 129.523438 253.613281 L 128.539062 254.890625 L 127.582031 256.179688 L 126.644531 257.488281 L 125.730469 258.8125 L 124.84375 260.152344 L 123.976562 261.507812 L 123.136719 262.875 L 122.316406 264.261719 L 121.523438 265.660156 L 120.753906 267.074219 L 120.011719 268.5 L 119.292969 269.9375 L 118.597656 271.386719 L 117.933594 272.851562 L 117.289062 274.324219 L 116.675781 275.8125 L 116.085938 277.308594 L 115.519531 278.8125 L 164.996094 296.820312 L 165.234375 296.179688 L 165.488281 295.546875 L 165.75 294.914062 L 166.019531 294.289062 L 166.304688 293.664062 L 166.601562 293.046875 L 166.90625 292.4375 L 167.222656 291.832031 L 167.546875 291.230469 L 167.886719 290.636719 L 168.234375 290.046875 L 168.589844 289.464844 L 168.957031 288.890625 L 169.335938 288.320312 L 169.722656 287.757812 L 170.121094 287.203125 L 170.53125 286.652344 L 170.945312 286.113281 L 171.375 285.578125 L 171.808594 285.050781 L 172.253906 284.53125 L 172.707031 284.023438 L 173.171875 283.519531 L 173.644531 283.023438 L 174.125 282.539062 L 174.613281 282.0625 L 175.109375 281.589844 L 175.613281 281.132812 L 176.128906 280.679688 L 176.648438 280.238281 L 177.179688 279.804688 L 177.714844 279.382812 L 178.257812 278.96875 L 178.808594 278.5625 L 179.367188 278.167969 L 179.933594 277.78125 L 180.503906 277.40625 L 181.082031 277.042969 L 181.664062 276.6875 L 182.257812 276.34375 L 182.851562 276.011719 L 183.453125 275.6875 L 184.0625 275.375 L 184.675781 275.070312 L 185.292969 274.78125 L 185.917969 274.5 L 186.546875 274.230469 L 187.179688 273.972656 L 187.816406 273.726562 L 188.457031 273.488281 L 189.101562 273.265625 L 189.75 273.050781 L 190.40625 272.851562 L 191.0625 272.660156 L 191.71875 272.480469 L 192.382812 272.3125 L 193.050781 272.160156 L 193.71875 272.015625 L 194.386719 271.882812 L 195.058594 271.761719 L 195.734375 271.65625 L 196.410156 271.558594 L 197.089844 271.472656 L 197.769531 271.402344 L 198.449219 271.339844 L 199.132812 271.292969 L 199.816406 271.253906 L 200.496094 271.230469 L 201.179688 271.21875 L 201.863281 271.214844 L 202.546875 271.226562 L 203.230469 271.25 L 203.914062 271.285156 L 204.59375 271.332031 L 205.277344 271.394531 L 205.957031 271.464844 L 206.632812 271.546875 L 207.3125 271.640625 L 207.988281 271.75 L 208.660156 271.867188 L 209.332031 271.996094 L 210 272.140625 L 210.664062 272.292969 L 211.328125 272.460938 L 211.988281 272.636719 L 212.644531 272.824219 L 213.296875 273.027344 L 213.949219 273.238281 L 214.59375 273.460938 L 215.234375 273.695312 L 215.875 273.941406 L 216.507812 274.199219 L 217.136719 274.464844 L 217.761719 274.746094 L 218.378906 275.035156 L 218.992188 275.335938 L 219.601562 275.648438 L 220.203125 275.96875 L 220.800781 276.300781 L 221.390625 276.644531 L 221.976562 277 L 222.554688 277.363281 L 223.128906 277.734375 L 223.695312 278.117188 L 224.253906 278.511719 L 224.804688 278.914062 L 225.347656 279.328125 L 225.886719 279.75 L 226.417969 280.183594 L 226.9375 280.625 L 227.453125 281.074219 L 227.957031 281.535156 L 228.457031 282 L 228.945312 282.476562 L 229.429688 282.964844 L 229.902344 283.457031 L 230.367188 283.957031 L 230.820312 284.46875 L 231.265625 284.984375 L 231.703125 285.511719 L 232.132812 286.042969 L 232.550781 286.585938 L 232.957031 287.132812 L 233.359375 287.6875 L 233.746094 288.25 L 234.125 288.816406 L 234.496094 289.394531 L 234.855469 289.976562 L 235.203125 290.5625 L 235.542969 291.15625 L 235.871094 291.757812 L 236.1875 292.359375 L 236.492188 292.972656 L 236.789062 293.589844 L 237.074219 294.210938 L 237.347656 294.835938 L 237.613281 295.464844 L 237.863281 296.101562 L 238.105469 296.742188 L 238.335938 297.386719 L 238.554688 298.03125 L 238.757812 298.683594 L 238.953125 299.339844 L 239.140625 299.996094 L 239.3125 300.660156 L 239.472656 301.324219 L 239.621094 301.988281 L 239.757812 302.660156 L 239.882812 303.332031 L 239.996094 304.003906 L 240.097656 304.679688 L 240.1875 305.359375 L 240.265625 306.039062 L 240.332031 306.71875 L 240.386719 307.398438 L 240.425781 308.082031 L 240.457031 308.765625 L 240.476562 309.449219 L 240.480469 310.132812 Z M 293.132812 310.132812 "/>
<path fill-rule="nonzero" fill="rgb(21.960784%, 59.607846%, 14.901961%)" fill-opacity="1" stroke-width="6" stroke-linecap="butt" stroke-linejoin="miter" stroke="rgb(100%, 100%, 100%)" stroke-opacity="1" stroke-miterlimit="2" d="M 115.519531 278.8125 L 114.980469 280.339844 L 114.46875 281.875 L 113.980469 283.417969 L 113.523438 284.96875 L 113.09375 286.53125 L 112.691406 288.097656 L 112.3125 289.671875 L 111.964844 291.25 L 111.648438 292.839844 L 111.355469 294.429688 L 111.09375 296.027344 L 110.855469 297.628906 L 110.648438 299.234375 L 110.472656 300.839844 L 110.320312 302.453125 L 110.199219 304.066406 L 110.105469 305.683594 L 110.042969 307.300781 L 110.007812 308.917969 L 110 310.535156 L 110.019531 312.152344 L 110.070312 313.773438 L 110.148438 315.386719 L 110.257812 317.003906 L 110.394531 318.617188 L 110.558594 320.226562 L 110.75 321.832031 L 110.972656 323.433594 L 111.21875 325.035156 L 111.496094 326.628906 L 111.804688 328.21875 L 112.136719 329.800781 L 112.5 331.378906 L 112.886719 332.949219 L 113.304688 334.511719 L 113.75 336.070312 L 114.222656 337.617188 L 114.722656 339.15625 L 115.246094 340.6875 L 115.800781 342.207031 L 116.382812 343.71875 L 116.988281 345.21875 L 117.621094 346.707031 L 118.28125 348.1875 L 118.96875 349.652344 L 119.679688 351.105469 L 120.414062 352.546875 L 121.175781 353.972656 L 121.964844 355.386719 L 122.777344 356.789062 L 123.613281 358.171875 L 124.476562 359.542969 L 125.359375 360.898438 L 126.269531 362.238281 L 127.203125 363.558594 L 128.160156 364.863281 L 129.136719 366.152344 L 130.136719 367.425781 L 131.164062 368.679688 L 132.207031 369.914062 L 133.273438 371.128906 L 134.363281 372.328125 L 135.472656 373.503906 L 136.605469 374.664062 L 137.753906 375.800781 L 138.925781 376.917969 L 140.117188 378.015625 L 141.324219 379.089844 L 142.554688 380.144531 L 143.800781 381.175781 L 145.0625 382.1875 L 146.347656 383.175781 L 147.644531 384.140625 L 148.960938 385.078125 L 150.296875 386 L 151.644531 386.890625 L 153.007812 387.761719 L 154.386719 388.609375 L 155.78125 389.429688 L 182.109375 343.832031 L 181.515625 343.484375 L 180.929688 343.125 L 180.347656 342.753906 L 179.777344 342.375 L 179.210938 341.984375 L 178.648438 341.585938 L 178.097656 341.175781 L 177.550781 340.753906 L 177.015625 340.324219 L 176.484375 339.886719 L 175.964844 339.4375 L 175.449219 338.980469 L 174.945312 338.515625 L 174.445312 338.042969 L 173.957031 337.558594 L 173.476562 337.066406 L 173.003906 336.566406 L 172.542969 336.054688 L 172.089844 335.539062 L 171.644531 335.015625 L 171.210938 334.480469 L 170.785156 333.941406 L 170.367188 333.394531 L 169.960938 332.839844 L 169.566406 332.277344 L 169.179688 331.707031 L 168.800781 331.132812 L 168.4375 330.550781 L 168.082031 329.960938 L 167.734375 329.367188 L 167.402344 328.765625 L 167.078125 328.15625 L 166.761719 327.546875 L 166.460938 326.925781 L 166.167969 326.304688 L 165.890625 325.675781 L 165.621094 325.042969 L 165.363281 324.40625 L 165.117188 323.765625 L 164.878906 323.117188 L 164.65625 322.46875 L 164.445312 321.8125 L 164.242188 321.15625 L 164.054688 320.492188 L 163.878906 319.828125 L 163.710938 319.160156 L 163.558594 318.492188 L 163.417969 317.816406 L 163.285156 317.144531 L 163.167969 316.464844 L 163.0625 315.785156 L 162.96875 315.105469 L 162.886719 314.421875 L 162.816406 313.738281 L 162.757812 313.050781 L 162.714844 312.367188 L 162.679688 311.679688 L 162.660156 310.992188 L 162.648438 310.304688 L 162.652344 309.617188 L 162.667969 308.929688 L 162.695312 308.242188 L 162.734375 307.554688 L 162.785156 306.867188 L 162.851562 306.183594 L 162.925781 305.5 L 163.015625 304.816406 L 163.113281 304.136719 L 163.226562 303.457031 L 163.351562 302.78125 L 163.484375 302.109375 L 163.632812 301.4375 L 163.792969 300.765625 L 163.964844 300.101562 L 164.148438 299.4375 L 164.34375 298.777344 L 164.550781 298.121094 L 164.765625 297.46875 L 164.996094 296.820312 Z M 115.519531 278.8125 "/>
<path fill-rule="nonzero" fill="rgb(79.215688%, 23.529412%, 20%)" fill-opacity="1" stroke-width="6" stroke-linecap="butt" stroke-linejoin="miter" stroke="rgb(100%, 100%, 100%)" stroke-opacity="1" stroke-miterlimit="2" d="M 155.78125 389.429688 L 157.171875 390.21875 L 158.578125 390.980469 L 159.996094 391.71875 L 161.425781 392.429688 L 162.867188 393.117188 L 164.320312 393.78125 L 165.789062 394.417969 L 167.265625 395.03125 L 168.75 395.617188 L 170.246094 396.175781 L 171.753906 396.710938 L 173.269531 397.214844 L 174.792969 397.695312 L 176.328125 398.152344 L 177.867188 398.578125 L 179.414062 398.976562 L 180.96875 399.351562 L 182.527344 399.695312 L 184.09375 400.015625 L 185.664062 400.304688 L 187.242188 400.570312 L 188.820312 400.804688 L 190.40625 401.015625 L 191.996094 401.195312 L 193.585938 401.347656 L 195.179688 401.476562 L 196.773438 401.570312 L 198.371094 401.640625 L 199.96875 401.683594 L 201.566406 401.699219 L 203.164062 401.683594 L 204.761719 401.640625 L 206.359375 401.570312 L 207.953125 401.476562 L 209.546875 401.347656 L 211.136719 401.195312 L 212.726562 401.015625 L 214.308594 400.804688 L 215.890625 400.570312 L 217.464844 400.304688 L 219.039062 400.015625 L 220.601562 399.695312 L 222.164062 399.351562 L 223.71875 398.976562 L 225.265625 398.578125 L 226.804688 398.152344 L 228.335938 397.695312 L 229.859375 397.214844 L 231.375 396.710938 L 232.882812 396.175781 L 234.378906 395.617188 L 235.867188 395.03125 L 237.34375 394.417969 L 238.808594 393.78125 L 240.261719 393.117188 L 241.707031 392.429688 L 243.136719 391.71875 L 244.554688 390.980469 L 245.957031 390.21875 L 247.347656 389.429688 L 248.726562 388.617188 L 250.089844 387.785156 L 251.4375 386.925781 L 252.769531 386.042969 L 254.085938 385.136719 L 255.386719 384.210938 L 256.671875 383.257812 L 257.941406 382.285156 L 259.191406 381.292969 L 260.421875 380.273438 L 261.636719 379.238281 L 262.835938 378.179688 L 264.015625 377.097656 L 265.171875 376 L 266.3125 374.878906 L 267.433594 373.738281 L 268.53125 372.578125 L 269.613281 371.402344 L 270.671875 370.203125 L 271.710938 368.988281 L 272.726562 367.757812 L 273.722656 366.503906 L 274.695312 365.238281 L 275.644531 363.953125 L 276.574219 362.652344 L 277.476562 361.335938 L 278.359375 360 L 279.21875 358.652344 L 280.054688 357.292969 L 280.863281 355.914062 L 281.652344 354.523438 L 282.414062 353.117188 L 283.152344 351.703125 L 283.863281 350.269531 L 284.554688 348.828125 L 285.214844 347.375 L 285.851562 345.910156 L 286.464844 344.433594 L 287.050781 342.945312 L 287.609375 341.449219 L 288.144531 339.941406 L 288.652344 338.425781 L 289.132812 336.902344 L 289.585938 335.371094 L 290.011719 333.832031 L 290.414062 332.28125 L 290.785156 330.730469 L 291.132812 329.167969 L 291.449219 327.601562 L 291.742188 326.03125 L 292.003906 324.457031 L 292.242188 322.875 L 292.449219 321.289062 L 292.628906 319.703125 L 292.785156 318.113281 L 292.910156 316.519531 L 293.007812 314.921875 L 293.078125 313.328125 L 293.117188 311.730469 L 293.132812 310.132812 L 240.480469 310.132812 L 240.476562 310.808594 L 240.457031 311.488281 L 240.429688 312.167969 L 240.386719 312.847656 L 240.332031 313.523438 L 240.269531 314.199219 L 240.191406 314.875 L 240.101562 315.546875 L 240.003906 316.21875 L 239.890625 316.890625 L 239.765625 317.558594 L 239.632812 318.222656 L 239.484375 318.886719 L 239.324219 319.546875 L 239.15625 320.203125 L 238.972656 320.859375 L 238.78125 321.507812 L 238.578125 322.15625 L 238.359375 322.800781 L 238.132812 323.441406 L 237.898438 324.078125 L 237.648438 324.710938 L 237.386719 325.335938 L 237.117188 325.960938 L 236.835938 326.578125 L 236.542969 327.191406 L 236.238281 327.796875 L 235.925781 328.402344 L 235.601562 328.996094 L 235.269531 329.589844 L 234.921875 330.175781 L 234.566406 330.753906 L 234.203125 331.328125 L 233.828125 331.894531 L 233.445312 332.453125 L 233.050781 333.003906 L 232.644531 333.550781 L 232.230469 334.089844 L 231.808594 334.621094 L 231.375 335.144531 L 230.9375 335.664062 L 230.484375 336.171875 L 230.027344 336.671875 L 229.558594 337.164062 L 229.082031 337.648438 L 228.597656 338.125 L 228.105469 338.59375 L 227.605469 339.050781 L 227.097656 339.5 L 226.582031 339.941406 L 226.054688 340.375 L 225.523438 340.796875 L 224.984375 341.210938 L 224.441406 341.613281 L 223.886719 342.007812 L 223.328125 342.394531 L 222.761719 342.769531 L 222.1875 343.132812 L 221.609375 343.488281 L 221.023438 343.832031 L 220.433594 344.167969 L 219.835938 344.492188 L 219.234375 344.804688 L 218.625 345.109375 L 218.011719 345.402344 L 217.394531 345.683594 L 216.769531 345.953125 L 216.144531 346.214844 L 215.511719 346.460938 L 214.875 346.699219 L 214.234375 346.925781 L 213.589844 347.140625 L 212.945312 347.347656 L 212.292969 347.539062 L 211.636719 347.722656 L 210.980469 347.890625 L 210.320312 348.050781 L 209.65625 348.195312 L 208.992188 348.332031 L 208.324219 348.457031 L 207.652344 348.566406 L 206.980469 348.667969 L 206.308594 348.757812 L 205.632812 348.832031 L 204.957031 348.898438 L 204.28125 348.953125 L 203.601562 348.992188 L 202.921875 349.023438 L 202.246094 349.042969 L 201.566406 349.046875 L 200.886719 349.042969 L 200.207031 349.023438 L 199.527344 348.992188 L 198.851562 348.953125 L 198.175781 348.898438 L 197.496094 348.832031 L 196.824219 348.757812 L 196.148438 348.667969 L 195.476562 348.566406 L 194.808594 348.457031 L 194.140625 348.332031 L 193.472656 348.195312 L 192.8125 348.050781 L 192.152344 347.890625 L 191.492188 347.722656 L 190.839844 347.539062 L 190.1875 347.347656 L 189.539062 347.140625 L 188.894531 346.925781 L 188.253906 346.699219 L 187.621094 346.460938 L 186.988281 346.214844 L 186.359375 345.953125 L 185.738281 345.683594 L 185.117188 345.402344 L 184.507812 345.109375 L 183.898438 344.804688 L 183.296875 344.492188 L 182.699219 344.167969 L 182.109375 343.832031 Z M 155.78125 389.429688 "/>
</svg>
